<svg width="100" height="100" viewBox="0 0 100 100" fill="none" xmlns="http://www.w3.org/2000/svg">
<rect width="100" height="100" rx="8" fill="white"/>
<path fill-rule="evenodd" clip-rule="evenodd" d="M44.5706 13.4283L37.5027 15.3222L38.2603 18.1494L21.9334 22.5242C21.1737 20.9988 19.4223 20.1669 17.7126 20.625C15.7609 21.148 14.6026 23.1541 15.1256 25.1059C15.6485 27.0576 17.6547 28.2159 19.6064 27.6929C21.3162 27.2348 22.417 25.6385 22.3122 23.9377L32.8758 21.1072C22.2935 27.8161 16.3651 40.3042 18.2801 53.0469L15.2543 53.8577L17.1481 60.9256L20.1739 60.1148C21.3781 63.1793 23.0175 65.9733 25 68.4437V86.8643C25 87.405 25.3002 87.6754 25.9005 87.6754H26.6444C27.2709 87.6754 27.5841 87.405 27.5841 86.8643V74.9792H31.9301C32.5305 74.9792 32.8307 74.7088 32.8307 74.168V73.4979C32.8307 72.9572 32.5305 72.6868 31.9301 72.6868H27.5841V65.2454H31.9301C32.5305 65.2454 32.8307 64.975 32.8307 64.4342V63.7994C32.8307 63.2587 32.5305 62.9883 31.9301 62.9883H25.9005C25.3002 62.9883 25 63.2587 25 63.7994V66.0105C23.6453 64.0887 22.4974 61.9886 21.5971 59.7335L24.216 59.0318L22.3222 51.9638L19.7032 52.6656C18.4955 44.3209 20.8064 36.102 25.6522 29.7124V55.9657C25.6522 56.6788 26.1606 57.0354 27.1773 57.0354H32.7472C34.5597 57.0354 36.0848 56.6168 37.3225 55.7797C38.5603 54.9115 39.1791 53.8263 39.1791 52.5241V28.9912C39.1791 27.6889 38.5603 26.6193 37.3225 25.7821C36.0848 24.914 34.5597 24.4799 32.7472 24.4799H30.6981C33.064 22.548 35.747 20.9481 38.6948 19.7711L39.3966 22.3901L46.4645 20.4962L45.7627 17.8773C54.4964 16.6133 63.0923 19.2035 69.5974 24.5203C68.9385 24.3693 68.2219 24.2939 67.4478 24.2939H66.9173C65.0607 24.2939 63.5135 24.7279 62.2757 25.5961C61.0822 26.4332 60.4854 27.5029 60.4854 28.8051V32.3862C60.4854 33.4714 60.6401 34.4481 60.9495 35.3162C61.259 36.1844 61.7894 37.068 62.5409 37.9672L68.7076 45.9665C69.2823 46.6796 69.5696 47.6718 69.5696 48.943V52.8032C69.5696 53.2062 69.3707 53.5473 68.9729 53.8263C68.575 54.1054 68.0887 54.2449 67.5141 54.2449H66.851C66.2763 54.2449 65.79 54.1054 65.3922 53.8263C64.9943 53.5473 64.7954 53.2062 64.7954 52.8032L64.928 47.1757C64.928 46.4626 64.4197 46.106 63.4029 46.106H62.0105C60.9937 46.106 60.4854 46.4626 60.4854 47.1757V52.7102C60.4854 54.0124 61.0822 55.0976 62.2757 55.9657C63.5135 56.8028 65.0607 57.2214 66.9173 57.2214H67.5141C69.3707 57.2214 70.8958 56.8028 72.0894 55.9657C73.3271 55.0976 73.946 54.0124 73.946 52.7102V49.4546C73.946 48.2454 73.8134 47.2687 73.5481 46.5246C73.3271 45.7805 72.7524 44.8503 71.8241 43.7341L65.9227 36.0603C65.2154 35.2232 64.8617 34.3861 64.8617 33.5489V28.7121C64.8617 28.309 65.0607 27.968 65.4585 27.6889C65.8564 27.4099 66.3426 27.2704 66.9173 27.2704H67.5141C68.0887 27.2704 68.575 27.4099 68.9729 27.6889C69.3707 27.968 69.5696 28.309 69.5696 28.7121V35.1302C69.5696 35.8433 70.078 36.1999 71.0947 36.1999H72.3546C73.3713 36.1999 73.8797 35.8433 73.8797 35.1302V28.8051L73.8796 28.7881C75.8424 31.1744 77.4664 33.8861 78.6573 36.8689L76.0383 37.5707L77.9321 44.6386L80.5511 43.9368C81.5252 50.6671 80.2105 57.3155 77.1229 62.9884C77.1152 62.9883 77.1073 62.9883 77.0995 62.9883H70.2868C69.6864 62.9883 69.3862 63.2587 69.3862 63.7994V64.3637C69.3862 64.9045 69.6864 65.1748 70.2868 65.1748H72.401V86.8643C72.401 87.405 72.7012 87.6754 73.3016 87.6754H74.0846C74.685 87.6754 74.9852 87.405 74.9852 86.8643V68.7662C75.9439 67.5997 76.8186 66.3685 77.6035 65.083C77.8544 64.9684 77.9862 64.7466 77.999 64.4176C81.5531 58.2709 83.0865 50.9561 81.9743 43.5555L85 42.7447L83.1062 35.6768L80.0805 36.4876C75.3675 24.4945 63.9892 16.6437 51.4703 16.1248L62.0339 13.2943C62.7935 14.8196 64.545 15.6516 66.2546 15.1935C68.2064 14.6705 69.3646 12.6644 68.8417 10.7126C68.3187 8.76086 66.3125 7.6026 64.3608 8.12557C62.6511 8.58369 61.5503 10.1799 61.6551 11.8808L45.3282 16.2555L44.5706 13.4283ZM75.8134 65.1748H74.9852V66.374C75.2707 65.9807 75.5469 65.5809 75.8134 65.1748ZM79.1697 38.2467L79.1697 38.2468L80.5867 37.8671L80.5866 37.867L82.0714 37.4692L83.2077 41.7099L78.9669 42.8462L77.8306 38.6055L79.1697 38.2467ZM40.0726 19.2588L40.4314 20.5977L44.6721 19.4614L44.2934 18.0479L43.9146 16.6343L43.5358 15.2206L39.2951 16.357L39.693 17.8418L40.0726 19.2588ZM18.5314 54.4947L18.5314 54.4948L19.9484 54.1151L19.9484 54.115L21.2873 53.7562L22.4237 57.9969L18.1829 59.1332L17.0466 54.8925L18.5314 54.4947ZM67.4281 11.0913C67.7419 12.2624 67.0469 13.4661 65.8759 13.7799C64.7048 14.0936 63.5011 13.3987 63.1873 12.2276C62.8736 11.0566 63.5685 9.85289 64.7396 9.53911C65.9106 9.22533 67.1143 9.92028 67.4281 11.0913ZM19.2277 26.2793C20.3987 25.9655 21.0937 24.7618 20.7799 23.5908C20.4661 22.4197 19.2624 21.7248 18.0914 22.0385C16.9203 22.3523 16.2254 23.556 16.5392 24.7271C16.8529 25.8981 18.0566 26.5931 19.2277 26.2793ZM32.6809 54.0589C33.2556 54.0589 33.7419 53.9194 34.1397 53.6403C34.5376 53.3613 34.7365 53.0202 34.7365 52.6171V28.8981C34.7365 28.4951 34.5376 28.154 34.1397 27.875C33.7419 27.5959 33.2556 27.4564 32.6809 27.4564H30.0286V54.0589H32.6809ZM45.438 57.0354C44.4213 57.0354 43.9129 56.6788 43.9129 55.9657V25.5496C43.9129 24.8365 44.4213 24.4799 45.438 24.4799H55.6495C56.6663 24.4799 57.1746 24.8365 57.1746 25.5496V26.3867C57.1746 27.0998 56.6663 27.4564 55.6495 27.4564H48.2893V37.2695H55.6495C56.6663 37.2695 57.1746 37.6261 57.1746 38.3392V39.2229C57.1746 39.936 56.6663 40.2926 55.6495 40.2926H48.2893V55.9657C48.2893 56.6788 47.7588 57.0354 46.6979 57.0354H45.438ZM47.126 94.0478C47.8568 94.6826 48.7704 95 49.8667 95H50.1799C51.3023 95 52.2159 94.6826 52.9207 94.0478C53.6254 93.3894 53.9778 92.5665 53.9778 91.579V60.4209C53.9778 59.4334 53.6254 58.6223 52.9207 57.9875C52.2159 57.3291 51.3023 57 50.1799 57H49.8667C48.7704 57 47.8568 57.3291 47.126 57.9875C46.3951 58.6223 46.0297 59.4334 46.0297 60.4209V91.579C46.0297 92.5665 46.3951 93.3894 47.126 94.0478ZM51.0413 92.4255C50.8064 92.6371 50.5193 92.7429 50.1799 92.7429H49.7884C49.4491 92.7429 49.1619 92.6371 48.927 92.4255C48.7182 92.2139 48.6138 91.9552 48.6138 91.6496V60.3504C48.6138 60.0447 48.7182 59.7861 48.927 59.5745C49.1619 59.3629 49.4491 59.2571 49.7884 59.2571H50.1799C50.5193 59.2571 50.8064 59.3629 51.0413 59.5745C51.2762 59.7861 51.3937 60.0447 51.3937 60.3504V91.6496C51.3937 91.9552 51.2762 92.2139 51.0413 92.4255ZM36.0385 87.6754C35.4382 87.6754 35.138 87.405 35.138 86.8643V63.7994C35.138 63.2587 35.4382 62.9883 36.0385 62.9883H39.2882C40.3845 62.9883 41.2851 63.3174 41.9898 63.9758C42.7207 64.6106 43.0861 65.4217 43.0861 66.4092V74.556C43.0861 75.1673 42.9295 75.7433 42.6163 76.2841C42.3292 76.8013 41.8202 77.1893 41.0893 77.4479L43.3602 86.7585C43.3863 86.829 43.3994 86.9231 43.3994 87.0406C43.3994 87.4638 43.1383 87.6754 42.6163 87.6754H41.7941C41.272 87.6754 40.9457 87.4403 40.8152 86.9701L38.6226 77.5537H37.6829V86.8643C37.6829 87.405 37.3828 87.6754 36.7824 87.6754H36.0385ZM39.3665 75.3671C39.7059 75.3671 39.98 75.2848 40.1888 75.1202C40.3976 74.9322 40.502 74.6853 40.502 74.3796V66.3387C40.502 66.033 40.3845 65.7744 40.1496 65.5628C39.9147 65.3512 39.6276 65.2454 39.2882 65.2454H37.6829V75.3671H39.3665ZM57.4478 87.6754C56.8474 87.6754 56.5473 87.405 56.5473 86.8643V63.7994C56.5473 63.2587 56.8474 62.9883 57.4478 62.9883H58.4266C58.9487 62.9883 59.288 63.2116 59.4446 63.6583L64.0256 79.8813H64.0647V63.7994C64.0647 63.2587 64.3649 62.9883 64.9653 62.9883H65.7483C66.3487 62.9883 66.6489 63.2587 66.6489 63.7994V86.8643C66.6489 87.405 66.3487 87.6754 65.7483 87.6754H64.8086C64.2866 87.6754 63.9473 87.4521 63.7907 87.0053L59.1705 70.7118H59.1314V86.8643C59.1314 87.405 58.8312 87.6754 58.2309 87.6754H57.4478Z" fill="#CB7F65"/>
</svg>
