<svg width="92" height="92" viewBox="0 0 92 92" fill="none" xmlns="http://www.w3.org/2000/svg">
<rect width="92" height="92" rx="8" fill="white"/>
<path fill-rule="evenodd" clip-rule="evenodd" d="M38.1739 80C56.4954 80 71.3478 65.1475 71.3478 46.8261C71.3478 28.5046 56.4954 13.6522 38.1739 13.6522C19.8525 13.6522 5 28.5046 5 46.8261C5 65.1475 19.8525 80 38.1739 80ZM38.1739 71.439C51.7672 71.439 62.7868 60.4194 62.7868 46.8261C62.7868 33.2327 51.7672 22.2132 38.1739 22.2132C24.5806 22.2132 13.561 33.2327 13.561 46.8261C13.561 60.4194 24.5806 71.439 38.1739 71.439Z" fill="#1BFAC1"/>
<path d="M89.7778 46.8261C89.7778 58.0225 80.7013 67.0991 69.5048 67.0991C58.3084 67.0991 49.2319 58.0225 49.2319 46.8261C49.2319 35.6297 58.3084 26.5532 69.5048 26.5532C80.7013 26.5532 89.7778 35.6297 89.7778 46.8261Z" fill="#1BFAC1"/>
<path d="M37.2254 45.802L41.0206 41.9657C41.4339 41.5479 41.4339 40.8704 41.0206 40.4526L36.6962 36.0814C36.2828 35.6636 35.6127 35.6636 35.1993 36.0814L25.5829 45.802C25.1695 46.2198 25.1695 46.8972 25.5829 47.315L35.7286 57.5706C36.1419 57.9884 36.812 57.9884 37.2254 57.5706L41.5498 53.1993C41.9631 52.7815 41.9631 52.1041 41.5498 51.6863L37.2254 47.315C36.812 46.8972 36.812 46.2198 37.2254 45.802Z" fill="#1BFAC1"/>
<path d="M66.7672 45.802L62.972 41.9657C62.5587 41.5479 62.5587 40.8704 62.972 40.4526L67.2964 36.0814C67.7098 35.6636 68.3799 35.6636 68.7933 36.0814L78.4098 45.802C78.8231 46.2198 78.8231 46.8972 78.4098 47.315L68.2641 57.5706C67.8507 57.9884 67.1806 57.9884 66.7672 57.5706L62.4428 53.1993C62.0295 52.7815 62.0295 52.1041 62.4428 51.6863L66.7672 47.315C67.1806 46.8972 67.1806 46.2198 66.7672 45.802Z" fill="white"/>
</svg>
