<svg width="1512" height="957" viewBox="0 0 1512 957" fill="none" xmlns="http://www.w3.org/2000/svg">
<path d="M1512.07 0H0V956.947H1512.07V0Z" fill="url(#paint0_linear_126_2289)"/>
<path d="M1281.75 27.6254C1281.75 27.4213 1281.75 27.2171 1281.75 27.0125" stroke="white" strokeWidth="2.9602" strokeMiterlimit="10" strokeLinecap="round" strokeLinejoin="round"/>
<path d="M1249.77 94.4187C1249.57 94.6229 1249.38 94.827 1249.19 95.0317" stroke="white" strokeWidth="2.9602" strokeMiterlimit="10" strokeLinecap="round" strokeLinejoin="round"/>
<path d="M1171.85 49.6855C1171.66 49.6855 1171.47 49.6855 1171.27 49.6855" stroke="white" strokeWidth="2.9602" strokeMiterlimit="10" strokeLinecap="round" strokeLinejoin="round"/>
<path d="M1194.53 112.189C1194.53 111.985 1194.53 111.781 1194.53 111.576" stroke="white" strokeWidth="2.9602" strokeMiterlimit="10" strokeLinecap="round" strokeLinejoin="round"/>
<path d="M1234.75 177.163C1234.7 177.461 1235.3 177.439 1235.23 177.145" stroke="white" strokeWidth="2.9602" strokeMiterlimit="10" strokeLinecap="round" strokeLinejoin="round"/>
<path d="M1157.32 156.309C1157.32 156.513 1157.32 156.718 1157.32 156.922" stroke="white" strokeWidth="2.9602" strokeMiterlimit="10" strokeLinecap="round" strokeLinejoin="round"/>
<path d="M1196.27 257.419C1196.47 257.215 1196.66 257.01 1196.86 256.806" stroke="white" strokeWidth="2.9602" strokeMiterlimit="10" strokeLinecap="round" strokeLinejoin="round"/>
<path d="M1364.31 169.178C1364.31 168.974 1364.31 168.769 1364.31 168.565" stroke="white" strokeWidth="2.9602" strokeMiterlimit="10" strokeLinecap="round" strokeLinejoin="round"/>
<path d="M1472.46 183.885C1472.66 183.681 1472.85 183.476 1473.04 183.272" stroke="white" strokeWidth="2.9602" strokeMiterlimit="10" strokeLinecap="round" strokeLinejoin="round"/>
<path d="M1440.48 134.862C1440.48 135.066 1440.48 135.27 1440.48 135.475" stroke="white" strokeWidth="2.9602" strokeMiterlimit="10" strokeLinecap="round" strokeLinejoin="round"/>
<path d="M1466.65 55.8133C1466.65 55.6092 1466.65 55.405 1466.65 55.2003" stroke="white" strokeWidth="2.9602" strokeMiterlimit="10" strokeLinecap="round" strokeLinejoin="round"/>
<path d="M1483.51 38.0425C1483.7 37.6342 1483.9 37.2254 1484.09 36.8171" stroke="white" strokeWidth="2.9602" strokeMiterlimit="10" strokeLinecap="round" strokeLinejoin="round"/>
<path d="M1498.63 61.3286C1498.63 61.1244 1498.63 60.9203 1498.63 60.7156" stroke="white" strokeWidth="2.9602" strokeMiterlimit="10" strokeLinecap="round" strokeLinejoin="round"/>
<path d="M1415.48 49.6855C1415.29 49.6855 1415.09 49.6855 1414.9 49.6855" stroke="white" strokeWidth="2.9602" strokeMiterlimit="10" strokeLinecap="round" strokeLinejoin="round"/>
<path d="M1431.45 205.236C1431.45 204.874 1431.45 204.512 1431.45 204.15" stroke="white" strokeWidth="2.9602" strokeMiterlimit="10" strokeLinecap="round" strokeLinejoin="round"/>
<path d="M1392.31 309.453C1392.31 309.091 1392.31 308.729 1392.31 308.367" stroke="white" strokeWidth="2.9602" strokeMiterlimit="10" strokeLinecap="round" strokeLinejoin="round"/>
<path d="M1357.28 500.516C1356.94 500.516 1356.6 500.516 1356.26 500.516" stroke="white" strokeWidth="2.9602" strokeMiterlimit="10" strokeLinecap="round" strokeLinejoin="round"/>
<path d="M1272.82 528.742C1273.16 528.742 1273.51 528.742 1273.85 528.742" stroke="white" strokeWidth="2.9602" strokeMiterlimit="10" strokeLinecap="round" strokeLinejoin="round"/>
<path d="M1240.89 488.575C1241.57 488.575 1242.26 488.575 1242.95 488.575" stroke="white" strokeWidth="2.9602" strokeMiterlimit="10" strokeLinecap="round" strokeLinejoin="round"/>
<path d="M1441.75 488.575C1441.75 488.213 1441.75 487.851 1441.75 487.489" stroke="white" strokeWidth="2.9602" strokeMiterlimit="10" strokeLinecap="round" strokeLinejoin="round"/>
<path d="M1447.93 503.773C1447.93 504.135 1447.93 504.497 1447.93 504.859" stroke="white" strokeWidth="2.9602" strokeMiterlimit="10" strokeLinecap="round" strokeLinejoin="round"/>
<path d="M1430.42 616.674C1430.08 616.312 1429.73 615.951 1429.39 615.589" stroke="white" strokeWidth="2.9602" strokeMiterlimit="10" strokeLinecap="round" strokeLinejoin="round"/>
<path d="M1483.98 631.873C1483.98 632.235 1483.98 632.596 1483.98 632.958" stroke="white" strokeWidth="2.9602" strokeMiterlimit="10" strokeLinecap="round" strokeLinejoin="round"/>
<path d="M978.216 492.917C977.872 492.917 977.529 492.917 977.185 492.917" stroke="white" strokeWidth="2.9602" strokeMiterlimit="10" strokeLinecap="round" strokeLinejoin="round"/>
<path d="M1084.31 315.966C1084.31 315.604 1084.31 315.242 1084.31 314.88" stroke="white" strokeWidth="2.9602" strokeMiterlimit="10" strokeLinecap="round" strokeLinejoin="round"/>
<path d="M1152.3 340.935C1151.96 340.935 1151.61 340.935 1151.27 340.935" stroke="white" strokeWidth="2.9602" strokeMiterlimit="10" strokeLinecap="round" strokeLinejoin="round"/>
<path d="M1019.42 73.8797C1019.08 74.2418 1018.73 74.6033 1018.39 74.9653" stroke="white" strokeWidth="2.9602" strokeMiterlimit="10" strokeLinecap="round" strokeLinejoin="round"/>
<path d="M978.216 44.5684C978.216 44.2064 978.216 43.8448 978.216 43.4828" stroke="white" strokeWidth="2.9602" strokeMiterlimit="10" strokeLinecap="round" strokeLinejoin="round"/>
<path d="M942.163 168.326C941.82 168.326 941.476 168.326 941.133 168.326" stroke="white" strokeWidth="2.9602" strokeMiterlimit="10" strokeLinecap="round" strokeLinejoin="round"/>
<path d="M918.471 223.691C918.814 223.691 919.157 223.691 919.501 223.691" stroke="white" strokeWidth="2.9602" strokeMiterlimit="10" strokeLinecap="round" strokeLinejoin="round"/>
<path d="M787.65 96.6766C788.681 96.6766 789.71 96.6766 790.741 96.6766" stroke="white" strokeWidth="2.9602" strokeMiterlimit="10" strokeLinecap="round" strokeLinejoin="round"/>
<path d="M874.177 90.1635C873.834 90.1635 873.491 90.1635 873.147 90.1635" stroke="white" strokeWidth="2.9602" strokeMiterlimit="10" strokeLinecap="round" strokeLinejoin="round"/>
<path d="M625.928 165.069C626.272 164.707 626.615 164.346 626.959 163.984" stroke="white" strokeWidth="2.9602" strokeMiterlimit="10" strokeLinecap="round" strokeLinejoin="round"/>
<path d="M566.184 95.5911C566.527 95.9531 566.87 96.3146 567.214 96.6767" stroke="white" strokeWidth="2.9602" strokeMiterlimit="10" strokeLinecap="round" strokeLinejoin="round"/>
<path d="M432.273 284.484C432.273 284.122 432.273 283.76 432.273 283.398" stroke="white" strokeWidth="2.9602" strokeMiterlimit="10" strokeLinecap="round" strokeLinejoin="round"/>
<path d="M390.04 295.34C389.697 295.34 389.354 295.34 389.01 295.34" stroke="white" strokeWidth="2.9602" strokeMiterlimit="10" strokeLinecap="round" strokeLinejoin="round"/>
<path d="M448.755 336.592C449.098 336.592 449.441 336.592 449.785 336.592" stroke="white" strokeWidth="2.9602" strokeMiterlimit="10" strokeLinecap="round" strokeLinejoin="round"/>
<path d="M400.341 381.101C400.341 380.739 400.341 380.378 400.341 380.016" stroke="white" strokeWidth="2.9602" strokeMiterlimit="10" strokeLinecap="round" strokeLinejoin="round"/>
<path d="M444.634 536.341C443.784 536.341 443.784 536.341 444.634 536.341" stroke="white" strokeWidth="2.9602" strokeMiterlimit="10" strokeLinecap="round" strokeLinejoin="round"/>
<path d="M483.778 518.971C482.927 518.971 482.927 518.971 483.778 518.971" stroke="white" strokeWidth="2.9602" strokeMiterlimit="10" strokeLinecap="round" strokeLinejoin="round"/>
<path d="M528.07 449.494C528.07 448.597 528.07 448.597 528.07 449.494" stroke="white" strokeWidth="2.9602" strokeMiterlimit="10" strokeLinecap="round" strokeLinejoin="round"/>
<path d="M443.604 681.81C443.948 681.81 444.291 681.81 444.635 681.81" stroke="white" strokeWidth="2.9602" strokeMiterlimit="10" strokeLinecap="round" strokeLinejoin="round"/>
<path d="M379.74 563.481C380.083 563.481 380.426 563.481 380.77 563.481" stroke="white" strokeWidth="2.9602" strokeMiterlimit="10" strokeLinecap="round" strokeLinejoin="round"/>
<path d="M279.821 538.512C279.821 538.15 279.821 537.788 279.821 537.426" stroke="white" strokeWidth="2.9602" strokeMiterlimit="10" strokeLinecap="round" strokeLinejoin="round"/>
<path d="M84.1066 682.895C84.4499 682.895 84.7931 682.895 85.1369 682.895" stroke="white" strokeWidth="2.9602" strokeMiterlimit="10" strokeLinecap="round" strokeLinejoin="round"/>
<path d="M45.9933 601.476C45.9933 601.114 45.9933 600.753 45.9933 600.391" stroke="white" strokeWidth="2.9602" strokeMiterlimit="10" strokeLinecap="round" strokeLinejoin="round"/>
<path d="M9.94061 627.53C9.94061 627.892 9.94061 628.254 9.94061 628.616" stroke="white" strokeWidth="2.9602" strokeMiterlimit="10" strokeLinecap="round" strokeLinejoin="round"/>
<path d="M69.6853 513.543C69.342 513.181 68.9988 512.819 68.655 512.457" stroke="white" strokeWidth="2.9602" strokeMiterlimit="10" strokeLinecap="round" strokeLinejoin="round"/>
<path d="M45.9933 461.435C45.6501 461.435 45.3068 461.435 44.963 461.435" stroke="white" strokeWidth="2.9602" strokeMiterlimit="10" strokeLinecap="round" strokeLinejoin="round"/>
<path d="M196.385 317.051C197.071 317.051 197.758 317.051 198.445 317.051" stroke="white" strokeWidth="2.9602" strokeMiterlimit="10" strokeLinecap="round" strokeLinejoin="round"/>
<path d="M290.122 311.624C290.466 311.262 290.809 310.9 291.153 310.538" stroke="white" strokeWidth="2.9602" strokeMiterlimit="10" strokeLinecap="round" strokeLinejoin="round"/>
<path d="M312.784 362.646C313.127 363.009 313.47 363.37 313.814 363.732" stroke="white" strokeWidth="2.9602" strokeMiterlimit="10" strokeLinecap="round" strokeLinejoin="round"/>
<path d="M120.159 281.227C120.503 281.227 120.846 281.227 121.19 281.227" stroke="white" strokeWidth="2.9602" strokeMiterlimit="10" strokeLinecap="round" strokeLinejoin="round"/>
<path d="M156.212 258.43C156.555 258.43 156.899 258.43 157.242 258.43" stroke="white" strokeWidth="2.9602" strokeMiterlimit="10" strokeLinecap="round" strokeLinejoin="round"/>
<path d="M64.5349 219.349C64.8781 219.349 65.2214 219.349 65.5651 219.349" stroke="white" strokeWidth="2.9602" strokeMiterlimit="10" strokeLinecap="round" strokeLinejoin="round"/>
<path d="M358.108 201.979C358.108 201.083 358.108 201.083 358.108 201.979" stroke="white" strokeWidth="2.9602" strokeMiterlimit="10" strokeLinecap="round" strokeLinejoin="round"/>
<path d="M293.213 72.7941C293.556 72.7941 293.899 72.7941 294.243 72.7941" stroke="white" strokeWidth="2.9602" strokeMiterlimit="10" strokeLinecap="round" strokeLinejoin="round"/>
<path d="M377.679 34.7983C377.679 35.1604 377.679 35.5219 377.679 35.884" stroke="white" strokeWidth="2.9602" strokeMiterlimit="10" strokeLinecap="round" strokeLinejoin="round"/>
<path d="M248.919 21.7709C249.262 22.133 249.606 22.4945 249.949 22.8566" stroke="white" strokeWidth="2.9602" strokeMiterlimit="10" strokeLinecap="round" strokeLinejoin="round"/>
<path d="M168.573 12.0008C168.573 11.6387 168.573 11.2772 168.573 10.9152" stroke="white" strokeWidth="2.9602" strokeMiterlimit="10" strokeLinecap="round" strokeLinejoin="round"/>
<path d="M34.6628 61.9379C34.3195 61.9379 33.9763 61.9379 33.6325 61.9379" stroke="white" strokeWidth="2.9602" strokeMiterlimit="10" strokeLinecap="round" strokeLinejoin="round"/>
<path d="M69.6852 9.82964C70.0285 9.46759 70.3717 9.10607 70.7155 8.74402" stroke="white" strokeWidth="2.9602" strokeMiterlimit="10" strokeLinecap="round" strokeLinejoin="round"/>
<g opacity="0.4">
<path d="M269.888 631.786C269.888 631.974 269.888 632.162 269.888 632.349" stroke="white" strokeWidth="2.7185" strokeMiterlimit="10" strokeLinecap="round" strokeLinejoin="round"/>
<path d="M299.256 570.447C299.434 570.259 299.612 570.071 299.79 569.884" stroke="white" strokeWidth="2.7185" strokeMiterlimit="10" strokeLinecap="round" strokeLinejoin="round"/>
<path d="M370.809 611.527C370.987 611.527 371.165 611.527 371.343 611.527" stroke="white" strokeWidth="2.7185" strokeMiterlimit="10" strokeLinecap="round" strokeLinejoin="round"/>
<path d="M349.984 554.127C349.984 554.314 349.984 554.502 349.984 554.689" stroke="white" strokeWidth="2.7185" strokeMiterlimit="10" strokeLinecap="round" strokeLinejoin="round"/>
<path d="M313.045 494.457C313.091 494.183 312.545 494.204 312.609 494.474" stroke="white" strokeWidth="2.7185" strokeMiterlimit="10" strokeLinecap="round" strokeLinejoin="round"/>
<path d="M384.158 513.609C384.158 513.421 384.158 513.234 384.158 513.046" stroke="white" strokeWidth="2.7185" strokeMiterlimit="10" strokeLinecap="round" strokeLinejoin="round"/>
<path d="M348.382 420.755C348.204 420.943 348.026 421.131 347.848 421.318" stroke="white" strokeWidth="2.7185" strokeMiterlimit="10" strokeLinecap="round" strokeLinejoin="round"/>
<path d="M194.063 501.791C194.063 501.979 194.063 502.166 194.063 502.353" stroke="white" strokeWidth="2.7185" strokeMiterlimit="10" strokeLinecap="round" strokeLinejoin="round"/>
<path d="M94.7443 488.285C94.5666 488.473 94.3884 488.66 94.2106 488.847" stroke="white" strokeWidth="2.7185" strokeMiterlimit="10" strokeLinecap="round" strokeLinejoin="round"/>
<path d="M124.113 533.305C124.113 533.118 124.113 532.93 124.113 532.742" stroke="white" strokeWidth="2.7185" strokeMiterlimit="10" strokeLinecap="round" strokeLinejoin="round"/>
<path d="M100.084 605.9C100.084 606.088 100.084 606.275 100.084 606.463" stroke="white" strokeWidth="2.7185" strokeMiterlimit="10" strokeLinecap="round" strokeLinejoin="round"/>
<path d="M84.5985 622.219C84.4202 622.595 84.2425 622.97 84.0642 623.345" stroke="white" strokeWidth="2.7185" strokeMiterlimit="10" strokeLinecap="round" strokeLinejoin="round"/>
<path d="M70.7156 600.835C70.7156 601.023 70.7156 601.21 70.7156 601.398" stroke="white" strokeWidth="2.7185" strokeMiterlimit="10" strokeLinecap="round" strokeLinejoin="round"/>
<path d="M147.074 611.527C147.251 611.527 147.43 611.527 147.607 611.527" stroke="white" strokeWidth="2.7185" strokeMiterlimit="10" strokeLinecap="round" strokeLinejoin="round"/>
<path d="M132.407 468.677C132.407 469.01 132.407 469.342 132.407 469.674" stroke="white" strokeWidth="2.7185" strokeMiterlimit="10" strokeLinecap="round" strokeLinejoin="round"/>
<path d="M168.354 372.97C168.354 373.302 168.354 373.635 168.354 373.967" stroke="white" strokeWidth="2.7185" strokeMiterlimit="10" strokeLinecap="round" strokeLinejoin="round"/>
<path d="M200.517 197.506C200.832 197.506 201.148 197.506 201.463 197.506" stroke="white" strokeWidth="2.7185" strokeMiterlimit="10" strokeLinecap="round" strokeLinejoin="round"/>
<path d="M278.087 171.586C277.772 171.586 277.456 171.586 277.141 171.586" stroke="white" strokeWidth="2.7185" strokeMiterlimit="10" strokeLinecap="round" strokeLinejoin="round"/>
<path d="M307.412 208.473C306.781 208.473 306.151 208.473 305.52 208.473" stroke="white" strokeWidth="2.7185" strokeMiterlimit="10" strokeLinecap="round" strokeLinejoin="round"/>
<path d="M122.947 208.473C122.947 208.805 122.947 209.137 122.947 209.47" stroke="white" strokeWidth="2.7185" strokeMiterlimit="10" strokeLinecap="round" strokeLinejoin="round"/>
<path d="M117.272 194.516C117.272 194.183 117.272 193.851 117.272 193.519" stroke="white" strokeWidth="2.7185" strokeMiterlimit="10" strokeLinecap="round" strokeLinejoin="round"/>
<path d="M133.353 90.8323C133.668 91.1646 133.984 91.4968 134.299 91.8291" stroke="white" strokeWidth="2.7185" strokeMiterlimit="10" strokeLinecap="round" strokeLinejoin="round"/>
<path d="M84.1624 76.8749C84.1624 76.5427 84.1624 76.2104 84.1624 75.8781" stroke="white" strokeWidth="2.7185" strokeMiterlimit="10" strokeLinecap="round" strokeLinejoin="round"/>
<path d="M548.636 204.485C548.951 204.485 549.267 204.485 549.582 204.485" stroke="white" strokeWidth="2.7185" strokeMiterlimit="10" strokeLinecap="round" strokeLinejoin="round"/>
<path d="M451.201 366.988C451.201 367.321 451.201 367.653 451.201 367.985" stroke="white" strokeWidth="2.7185" strokeMiterlimit="10" strokeLinecap="round" strokeLinejoin="round"/>
<path d="M388.766 344.059C389.082 344.059 389.397 344.059 389.712 344.059" stroke="white" strokeWidth="2.7185" strokeMiterlimit="10" strokeLinecap="round" strokeLinejoin="round"/>
<path d="M510.797 589.308C511.112 588.976 511.428 588.644 511.743 588.312" stroke="white" strokeWidth="2.7185" strokeMiterlimit="10" strokeLinecap="round" strokeLinejoin="round"/>
<path d="M548.636 616.226C548.636 616.558 548.636 616.891 548.636 617.223" stroke="white" strokeWidth="2.7185" strokeMiterlimit="10" strokeLinecap="round" strokeLinejoin="round"/>
<path d="M581.745 502.574C582.06 502.574 582.376 502.574 582.691 502.574" stroke="white" strokeWidth="2.7185" strokeMiterlimit="10" strokeLinecap="round" strokeLinejoin="round"/>
<path d="M603.502 451.729C603.187 451.729 602.872 451.729 602.556 451.729" stroke="white" strokeWidth="2.7185" strokeMiterlimit="10" strokeLinecap="round" strokeLinejoin="round"/>
<path d="M723.641 568.373C722.695 568.373 721.75 568.373 720.804 568.373" stroke="white" strokeWidth="2.7185" strokeMiterlimit="10" strokeLinecap="round" strokeLinejoin="round"/>
<path d="M644.18 574.354C644.495 574.354 644.81 574.354 645.126 574.354" stroke="white" strokeWidth="2.7185" strokeMiterlimit="10" strokeLinecap="round" strokeLinejoin="round"/>
<path d="M872.159 505.565C871.844 505.897 871.529 506.229 871.213 506.562" stroke="white" strokeWidth="2.7185" strokeMiterlimit="10" strokeLinecap="round" strokeLinejoin="round"/>
<path d="M927.026 569.37C926.711 569.037 926.395 568.705 926.08 568.373" stroke="white" strokeWidth="2.7185" strokeMiterlimit="10" strokeLinecap="round" strokeLinejoin="round"/>
<path d="M1050 395.9C1050 396.232 1050 396.564 1050 396.897" stroke="white" strokeWidth="2.7185" strokeMiterlimit="10" strokeLinecap="round" strokeLinejoin="round"/>
<path d="M1088.79 385.931C1089.1 385.931 1089.42 385.931 1089.73 385.931" stroke="white" strokeWidth="2.7185" strokeMiterlimit="10" strokeLinecap="round" strokeLinejoin="round"/>
<path d="M1034.87 348.047C1034.55 348.047 1034.24 348.047 1033.92 348.047" stroke="white" strokeWidth="2.7185" strokeMiterlimit="10" strokeLinecap="round" strokeLinejoin="round"/>
<path d="M1079.33 307.171C1079.33 307.504 1079.33 307.836 1079.33 308.168" stroke="white" strokeWidth="2.7185" strokeMiterlimit="10" strokeLinecap="round" strokeLinejoin="round"/>
<path d="M1038.65 164.607C1039.43 164.607 1039.43 164.607 1038.65 164.607" stroke="white" strokeWidth="2.7185" strokeMiterlimit="10" strokeLinecap="round" strokeLinejoin="round"/>
<path d="M1002.7 180.558C1003.48 180.558 1003.48 180.558 1002.7 180.558" stroke="white" strokeWidth="2.7185" strokeMiterlimit="10" strokeLinecap="round" strokeLinejoin="round"/>
<path d="M962.027 244.363C962.027 245.186 962.027 245.186 962.027 244.363" stroke="white" strokeWidth="2.7185" strokeMiterlimit="10" strokeLinecap="round" strokeLinejoin="round"/>
<path d="M1039.6 31.0152C1039.28 31.0152 1038.97 31.0152 1038.65 31.0152" stroke="white" strokeWidth="2.7185" strokeMiterlimit="10" strokeLinecap="round" strokeLinejoin="round"/>
<path d="M1098.25 139.683C1097.93 139.683 1097.62 139.683 1097.3 139.683" stroke="white" strokeWidth="2.7185" strokeMiterlimit="10" strokeLinecap="round" strokeLinejoin="round"/>
<path d="M1190.01 162.613C1190.01 162.945 1190.01 163.278 1190.01 163.61" stroke="white" strokeWidth="2.7185" strokeMiterlimit="10" strokeLinecap="round" strokeLinejoin="round"/>
<path d="M1369.74 30.0183C1369.43 30.0183 1369.11 30.0183 1368.8 30.0183" stroke="white" strokeWidth="2.7185" strokeMiterlimit="10" strokeLinecap="round" strokeLinejoin="round"/>
<path d="M1404.74 104.79C1404.74 105.122 1404.74 105.454 1404.74 105.786" stroke="white" strokeWidth="2.7185" strokeMiterlimit="10" strokeLinecap="round" strokeLinejoin="round"/>
<path d="M1437.85 80.8628C1437.85 80.5305 1437.85 80.1982 1437.85 79.866" stroke="white" strokeWidth="2.7185" strokeMiterlimit="10" strokeLinecap="round" strokeLinejoin="round"/>
<path d="M1382.99 185.543C1383.3 185.875 1383.62 186.207 1383.93 186.54" stroke="white" strokeWidth="2.7185" strokeMiterlimit="10" strokeLinecap="round" strokeLinejoin="round"/>
<path d="M1404.74 233.396C1405.06 233.396 1405.37 233.396 1405.69 233.396" stroke="white" strokeWidth="2.7185" strokeMiterlimit="10" strokeLinecap="round" strokeLinejoin="round"/>
<path d="M1266.63 365.992C1266 365.992 1265.37 365.992 1264.74 365.992" stroke="white" strokeWidth="2.7185" strokeMiterlimit="10" strokeLinecap="round" strokeLinejoin="round"/>
<path d="M1180.55 370.976C1180.23 371.309 1179.92 371.641 1179.6 371.973" stroke="white" strokeWidth="2.7185" strokeMiterlimit="10" strokeLinecap="round" strokeLinejoin="round"/>
<path d="M1159.74 324.119C1159.42 323.787 1159.11 323.455 1158.79 323.122" stroke="white" strokeWidth="2.7185" strokeMiterlimit="10" strokeLinecap="round" strokeLinejoin="round"/>
<path d="M1336.63 398.891C1336.32 398.891 1336 398.891 1335.69 398.891" stroke="white" strokeWidth="2.7185" strokeMiterlimit="10" strokeLinecap="round" strokeLinejoin="round"/>
<path d="M1303.52 419.827C1303.21 419.827 1302.89 419.827 1302.58 419.827" stroke="white" strokeWidth="2.7185" strokeMiterlimit="10" strokeLinecap="round" strokeLinejoin="round"/>
<path d="M1387.72 455.717C1387.4 455.717 1387.09 455.717 1386.77 455.717" stroke="white" strokeWidth="2.7185" strokeMiterlimit="10" strokeLinecap="round" strokeLinejoin="round"/>
<path d="M1118.11 471.669C1118.11 472.492 1118.11 472.492 1118.11 471.669" stroke="white" strokeWidth="2.7185" strokeMiterlimit="10" strokeLinecap="round" strokeLinejoin="round"/>
<path d="M1177.71 590.306C1177.39 590.306 1177.08 590.306 1176.76 590.306" stroke="white" strokeWidth="2.7185" strokeMiterlimit="10" strokeLinecap="round" strokeLinejoin="round"/>
<path d="M1100.14 625.199C1100.14 624.867 1100.14 624.534 1100.14 624.202" stroke="white" strokeWidth="2.7185" strokeMiterlimit="10" strokeLinecap="round" strokeLinejoin="round"/>
<path d="M1218.39 637.162C1218.07 636.83 1217.76 636.498 1217.44 636.166" stroke="white" strokeWidth="2.7185" strokeMiterlimit="10" strokeLinecap="round" strokeLinejoin="round"/>
<path d="M1292.17 646.135C1292.17 646.467 1292.17 646.8 1292.17 647.132" stroke="white" strokeWidth="2.7185" strokeMiterlimit="10" strokeLinecap="round" strokeLinejoin="round"/>
<path d="M1415.15 600.275C1415.46 600.275 1415.78 600.275 1416.1 600.275" stroke="white" strokeWidth="2.7185" strokeMiterlimit="10" strokeLinecap="round" strokeLinejoin="round"/>
<path d="M1382.99 648.129C1382.67 648.461 1382.36 648.793 1382.04 649.126" stroke="white" strokeWidth="2.7185" strokeMiterlimit="10" strokeLinecap="round" strokeLinejoin="round"/>
</g>
<path opacity="0.1" d="M1011.12 0H500.843C346.216 88.7142 242.038 255.581 242.038 446.813C242.038 594.84 304.463 728.262 404.384 822.144H1107.58C1207.5 728.263 1269.93 594.84 1269.93 446.813C1269.93 255.581 1165.75 88.7142 1011.12 0Z" fill="#E5EDD4"/>
<path opacity="0.1" d="M756.006 878.309C989.12 878.309 1178.1 688.935 1178.1 455.33C1178.1 221.726 989.12 32.3517 756.006 32.3517C522.891 32.3517 333.915 221.726 333.915 455.33C333.915 688.935 522.891 878.309 756.006 878.309Z" fill="#E5EDD4"/>
<path opacity="0.1" d="M759.092 803.074C947.884 803.074 1100.93 649.706 1100.93 460.516C1100.93 271.327 947.884 117.958 759.092 117.958C570.299 117.958 417.253 271.327 417.253 460.516C417.253 649.706 570.299 803.074 759.092 803.074Z" fill="#E5EDD4"/>
<path d="M762.288 712.073C903.053 712.073 1017.16 597.721 1017.16 456.661C1017.16 315.601 903.053 201.249 762.288 201.249C621.524 201.249 507.413 315.601 507.413 456.661C507.413 597.721 621.524 712.073 762.288 712.073Z" fill="#FEE6D5"/>
<path d="M873.662 266.928C876.034 264.902 878.959 262.737 881.969 263.546C883.635 263.993 886.007 264.866 887.632 266.932C887.632 266.932 892.03 263.649 894.424 263.351C896.818 263.054 899.369 263.697 901.162 265.314C899.536 264.42 897.513 264.788 895.769 265.42C892.54 266.589 889.616 268.594 887.36 271.186C886.115 269.065 884.695 266.791 882.387 265.95C879.488 264.893 876.342 265.394 873.662 266.928Z" fill="#892634"/>
<path d="M878.125 317.484C880.497 315.458 883.421 313.293 886.431 314.101C888.096 314.548 890.469 315.421 892.094 317.487C892.094 317.487 896.492 314.204 898.885 313.906C901.279 313.608 903.831 314.252 905.624 315.87C903.998 314.975 901.975 315.343 900.231 315.975C897.002 317.144 894.078 319.149 891.821 321.742C890.577 319.62 889.157 317.346 886.849 316.505C883.949 315.448 880.804 315.949 878.125 317.484Z" fill="#892634"/>
<path d="M957.332 306.516C958.373 305.627 959.656 304.678 960.976 305.032C961.707 305.229 962.748 305.611 963.461 306.518C963.461 306.518 965.39 305.078 966.44 304.947C967.491 304.817 968.61 305.099 969.397 305.809C968.683 305.416 967.796 305.578 967.03 305.855C965.614 306.368 964.331 307.247 963.341 308.385C962.795 307.454 962.172 306.457 961.16 306.088C959.888 305.624 958.508 305.843 957.332 306.516Z" fill="#892634"/>
<path d="M835.132 320.409C834.039 312.347 842.239 311.576 843.865 313.642C843.865 313.642 849.211 308.535 854.676 319.051C848.773 314.757 845.849 315.304 843.592 317.897C842.347 315.775 839.067 314.45 835.132 320.409Z" fill="#892634"/>
<path d="M921.064 293.942C919.971 285.88 928.228 286.307 929.853 288.373C929.853 288.373 935.142 282.068 940.608 292.583C934.705 288.289 931.781 288.837 929.524 291.43C928.28 289.308 924.999 287.983 921.064 293.942Z" fill="#892634"/>
<path d="M915.151 328.77C915.017 323.691 920.115 324.516 920.984 325.909C920.984 325.909 924.694 322.353 927.377 329.252C924.002 326.186 922.15 326.328 920.574 327.784C919.944 326.382 917.996 325.337 915.151 328.77Z" fill="#892634"/>
<path d="M810.342 296.59C811.902 294.629 813.876 292.473 816.373 292.647C817.754 292.743 819.758 293.067 821.355 294.445C821.355 294.445 824.319 291.181 826.161 290.579C828.002 289.976 830.112 290.091 831.773 291.091C830.355 290.636 828.817 291.236 827.538 292.002C825.172 293.42 823.174 295.451 821.792 297.841C820.486 296.36 819.019 294.787 817.071 294.478C814.623 294.091 812.22 294.969 810.342 296.59Z" fill="#892634"/>
<path d="M971.011 279.148C972.152 277.893 973.581 276.526 975.259 276.755C976.187 276.882 977.526 277.19 978.544 278.193C978.544 278.193 980.691 276.122 981.961 275.797C983.232 275.473 984.652 275.645 985.729 276.394C984.791 276.024 983.725 276.36 982.828 276.821C981.167 277.672 979.728 278.954 978.687 280.506C977.872 279.447 976.951 278.319 975.649 278.024C974.013 277.652 972.351 278.137 971.011 279.148Z" fill="#892634"/>
<defs>
<linearGradient id="paint0_linear_126_2289" x1="756.035" y1="-3.29557" x2="756.035" y2="555.292" gradientUnits="userSpaceOnUse">
<stop offset="0.0028" stopColor="#F79678"/>
<stop offset="1" stopColor="#FFDCD6"/>
</linearGradient>
</defs>
</svg>
