<svg width="1512" height="983" viewBox="0 0 1512 983" fill="none" xmlns="http://www.w3.org/2000/svg">
<path fillRule="evenodd" clipRule="evenodd" d="M742.116 640.185L723.363 645.21L725.373 652.711L681.853 664.372C679.468 660.371 674.638 658.265 669.917 659.53C664.221 661.057 660.84 666.912 662.367 672.608C663.893 678.305 669.748 681.685 675.444 680.159C680.825 678.717 684.139 673.414 683.204 668.03L710.996 660.583C704.727 664.542 699.064 669.257 694.099 674.567H693.978V674.697C676.662 693.296 667.89 719.164 671.58 745.512L664.332 747.454L669.357 766.207L676.395 764.321C679.729 773.128 684.395 781.121 690.095 788.129V819.36C690.095 820.137 690.484 820.525 691.26 820.525H692.134C692.91 820.525 693.299 820.137 693.299 819.36V798.916H699.414C700.191 798.916 700.579 798.528 700.579 797.752V796.878C700.579 796.101 700.191 795.713 699.414 795.713H693.299V782.958H699.414C700.191 782.958 700.579 782.57 700.579 781.793V780.919C700.579 780.143 700.191 779.754 699.414 779.754H691.26C690.484 779.754 690.095 780.143 690.095 780.919V781.736C686.081 776.141 682.724 769.971 680.166 763.311L688.11 761.182L683.085 742.429L675.361 744.499C672.502 723.182 678.173 702.223 690.095 685.567V721.465C690.095 722.816 690.794 723.491 692.192 723.491H699.391C701.721 723.491 703.654 722.723 705.192 721.185C706.776 719.601 707.568 717.644 707.568 715.314V682.744C707.568 680.415 706.776 678.481 705.192 676.943C703.685 675.391 701.797 674.599 699.529 674.568C707.117 667.15 716.219 661.12 726.525 657.013L728.387 663.962L747.14 658.938L745.275 651.976C782.641 646.489 819.101 667.294 833.438 702.142L825.607 704.24L830.632 722.993L838.683 720.836C841.561 739.023 838.191 757.037 829.984 772.432L823.986 728.873C823.846 727.615 823.124 726.986 821.819 726.986H817.765C816.507 726.986 815.762 727.615 815.529 728.873L809.238 773.534C809.145 774.233 809.285 774.815 809.658 775.281C810.03 775.701 810.566 775.91 811.265 775.91H813.292C813.851 775.91 814.294 775.747 814.62 775.421C814.993 775.095 815.226 774.652 815.319 774.093L816.577 764.238H822.797L824.125 774.093C824.172 774.652 824.382 775.095 824.754 775.421C825.127 775.747 825.593 775.91 826.152 775.91H828.021C825.019 780.944 821.482 785.661 817.465 789.969V784.822C817.465 783.346 816.98 782.142 816.009 781.21C815.077 780.24 813.874 779.754 812.398 779.754H808.088C807.312 779.754 806.923 780.143 806.923 780.919V819.36C806.923 820.137 807.312 820.525 808.088 820.525H812.398C813.874 820.525 815.077 820.039 816.009 819.069C816.98 818.098 817.465 816.894 817.465 815.458V795.524C837.124 776.334 847.093 748.262 842.453 719.826L849.385 717.969L844.36 699.216L837.219 701.129C824.363 669.354 793.99 648.612 760.619 647.286L786.429 640.371C788.311 645.501 793.833 648.436 799.214 646.995C804.91 645.468 808.29 639.613 806.764 633.917C805.238 628.221 799.383 624.84 793.686 626.367C788.965 627.632 785.835 631.87 785.77 636.527L744.126 647.686L742.116 640.185ZM740.424 648.874L739.37 644.94L728.118 647.955L729.123 651.706L729.123 651.706L730.128 655.456L730.128 655.456L731.133 659.207L742.385 656.192L741.431 652.633C741.431 652.633 741.431 652.633 741.431 652.633L740.424 648.874C740.424 648.874 740.424 648.874 740.424 648.874ZM837.984 717.004L841.74 715.997L844.629 715.223L841.614 703.971L838.601 704.779L834.838 705.787L830.363 706.986L833.378 718.238L837.984 717.004ZM675.098 760.649L678.855 759.642L683.354 758.436L680.339 747.185L675.971 748.355L672.208 749.363L669.087 750.2L672.102 761.451L675.098 760.649ZM789.896 638.477C790.883 642.079 794.596 644.212 798.209 643.244C801.833 642.273 803.985 638.547 803.013 634.922C802.042 631.297 798.316 629.146 794.691 630.117C791.079 631.085 788.93 634.789 789.876 638.402L789.896 638.477ZM674.439 676.408C678.064 675.437 680.215 671.711 679.244 668.086C678.273 664.461 674.547 662.31 670.922 663.281C667.297 664.252 665.146 667.978 666.117 671.603C667.088 675.228 670.814 677.379 674.439 676.408ZM723.658 826C722.222 826 721.018 825.515 720.047 824.544C719.077 823.573 718.591 822.369 718.591 820.933V774.979C718.591 773.503 719.077 772.299 720.047 771.368C721.018 770.397 722.222 769.911 723.658 769.911H724.066C725.503 769.911 726.687 770.397 727.619 771.368C728.59 772.299 729.075 773.503 729.075 774.979V820.933C729.075 822.408 728.59 823.631 727.619 824.602C726.687 825.534 725.503 826 724.066 826H723.658ZM724.066 822.796C724.571 822.796 724.998 822.622 725.348 822.272C725.697 821.923 725.872 821.496 725.872 820.991V774.92C725.872 774.416 725.697 773.988 725.348 773.639C724.998 773.29 724.571 773.115 724.066 773.115H723.6C723.095 773.115 722.668 773.29 722.319 773.639C721.969 773.988 721.795 774.416 721.795 774.92V820.991C721.795 821.496 721.969 821.923 722.319 822.272C722.668 822.622 723.095 822.796 723.6 822.796H724.066ZM703.81 819.36C703.81 820.137 704.198 820.525 704.975 820.525H705.848C706.625 820.525 707.013 820.137 707.013 819.36V803.576H708.469L711.614 819.476C711.731 820.175 712.158 820.525 712.896 820.525H713.828C714.527 820.525 714.876 820.214 714.876 819.593C714.876 819.438 714.857 819.321 714.818 819.243L711.556 803.459C712.566 803.071 713.284 802.469 713.711 801.654C714.138 800.839 714.352 799.984 714.352 799.091V784.822C714.352 783.346 713.866 782.142 712.896 781.21C711.964 780.24 710.76 779.754 709.285 779.754H704.975C704.198 779.754 703.81 780.143 703.81 780.919V819.36ZM710.624 799.965C710.352 800.237 709.964 800.373 709.459 800.373H707.013V782.958H709.285C709.789 782.958 710.217 783.133 710.566 783.482C710.915 783.831 711.09 784.259 711.09 784.763V798.742C711.09 799.247 710.935 799.654 710.624 799.965ZM732.875 819.36C732.875 820.137 733.263 820.525 734.039 820.525H734.913C735.69 820.525 736.078 820.137 736.078 819.36V790.937H736.136L742.834 819.535C743.028 820.195 743.455 820.525 744.116 820.525H745.513C746.29 820.525 746.678 820.137 746.678 819.36V780.919C746.678 780.143 746.29 779.754 745.513 779.754H744.64C743.863 779.754 743.475 780.143 743.475 780.919L743.417 809.109H743.358L736.719 780.745C736.525 780.084 736.097 779.754 735.437 779.754H734.039C733.263 779.754 732.875 780.143 732.875 780.919V819.36ZM756.194 820.525C755.418 820.525 755.029 820.137 755.029 819.36V782.783H751.942C751.166 782.783 750.778 782.395 750.778 781.618V780.919C750.778 780.143 751.166 779.754 751.942 779.754H761.32C762.096 779.754 762.485 780.143 762.485 780.919V781.618C762.485 782.395 762.096 782.783 761.32 782.783H758.233V819.36C758.233 820.137 757.844 820.525 757.068 820.525H756.194ZM775.306 819.36C775.306 820.137 775.694 820.525 776.471 820.525H783.46C784.236 820.525 784.625 820.137 784.625 819.36V818.486C784.625 817.71 784.236 817.321 783.46 817.321H778.509V801.829H783.46C784.236 801.829 784.625 801.44 784.625 800.664V799.79C784.625 799.014 784.236 798.625 783.46 798.625H778.509V782.958H783.46C784.236 782.958 784.625 782.57 784.625 781.793V780.919C784.625 780.143 784.236 779.754 783.46 779.754H776.471C775.694 779.754 775.306 780.143 775.306 780.919V819.36ZM789.894 820.525C789.117 820.525 788.729 820.137 788.729 819.36V780.919C788.729 780.143 789.117 779.754 789.894 779.754H791.292C791.952 779.754 792.379 780.084 792.573 780.745L799.213 809.109H799.271L799.329 780.919C799.329 780.143 799.718 779.754 800.494 779.754H801.368C802.145 779.754 802.533 780.143 802.533 780.919V819.36C802.533 820.137 802.145 820.525 801.368 820.525H799.97C799.31 820.525 798.883 820.195 798.689 819.535L791.991 790.937H791.932V819.36C791.932 820.137 791.544 820.525 790.768 820.525H789.894ZM813.68 816.797C813.33 817.147 812.903 817.321 812.398 817.321H810.127V782.958H812.398C812.903 782.958 813.33 783.133 813.68 783.482C814.029 783.831 814.204 784.259 814.204 784.763V815.516C814.204 816.021 814.029 816.448 813.68 816.797ZM763.87 765.815C762.576 765.815 761.929 764.394 761.929 761.552V667.181C761.929 664.339 762.576 662.918 763.87 662.918H765.812C767.106 662.918 767.753 664.339 767.753 667.181V761.552C767.753 764.394 767.106 765.815 765.812 765.815H763.87ZM775.604 723.491C774.253 723.491 773.578 722.816 773.578 721.465V676.594C773.578 675.243 774.253 674.567 775.604 674.567H786.438C787.836 674.567 788.534 675.243 788.534 676.594V678.341C788.534 679.692 787.836 680.368 786.438 680.368H779.658V696.094H786.438C787.836 696.094 788.534 696.769 788.534 698.121V699.868C788.534 701.219 787.836 701.895 786.438 701.895H779.658V717.69H786.438C787.836 717.69 788.534 718.366 788.534 719.717V721.465C788.534 722.816 787.836 723.491 786.438 723.491H775.604ZM795.591 723.491C794.194 723.491 793.495 722.816 793.495 721.465V676.594C793.495 675.243 794.194 674.567 795.591 674.567H797.548C798.946 674.567 799.645 675.243 799.645 676.594V717.621H806.425C807.776 717.621 808.452 718.296 808.452 719.647V721.465C808.452 722.816 807.776 723.491 806.425 723.491H795.591ZM740.938 774.163C742.522 775.701 744.502 776.47 746.879 776.47H747.857C750.234 776.47 752.191 775.701 753.728 774.163C755.266 772.579 756.035 770.622 756.035 768.292V765.007C756.035 762.911 755.825 761.14 755.406 759.695C755.033 758.204 754.194 756.597 752.889 754.873L746.389 745.018C745.784 744.226 745.364 743.504 745.131 742.851C744.898 742.199 744.782 741.5 744.782 740.755V734.954C744.782 734.348 744.992 733.835 745.411 733.416C745.83 732.997 746.343 732.787 746.949 732.787H747.787C748.393 732.787 748.906 732.997 749.325 733.416C749.744 733.835 749.954 734.348 749.954 734.954V742.432C749.954 743.83 750.63 744.529 751.981 744.529H754.008C755.359 744.529 756.035 743.83 756.035 742.432V735.163C756.035 732.834 755.242 730.9 753.658 729.362C752.121 727.778 750.164 726.986 747.787 726.986H746.879C744.502 726.986 742.522 727.778 740.938 729.362C739.4 730.9 738.631 732.834 738.631 735.163V739.357C738.631 742.991 739.657 746.16 741.707 748.862L748.626 759.276C749.232 760.022 749.605 760.744 749.744 761.443C749.884 762.095 749.954 762.887 749.954 763.819V768.502C749.954 769.108 749.744 769.62 749.325 770.04C748.906 770.459 748.393 770.669 747.787 770.669H746.879C746.273 770.669 745.76 770.459 745.341 770.04C744.922 769.62 744.712 769.108 744.712 768.502L744.782 761.862C744.782 760.511 744.106 759.835 742.755 759.835H740.658C739.307 759.835 738.631 760.511 738.631 761.862V768.292C738.631 770.622 739.4 772.579 740.938 774.163ZM699.251 717.69C699.857 717.69 700.369 717.481 700.789 717.061C701.208 716.642 701.418 716.13 701.418 715.524V682.535C701.418 681.929 701.208 681.416 700.789 680.997C700.369 680.578 699.857 680.368 699.251 680.368H696.246V717.69H699.251ZM713.245 723.491C712.546 723.491 712.01 723.282 711.637 722.862C711.265 722.397 711.125 721.814 711.218 721.115L717.508 676.454C717.741 675.196 718.487 674.567 719.745 674.567H723.799C725.103 674.567 725.825 675.196 725.965 676.454L732.116 721.115C732.209 721.814 732.069 722.397 731.696 722.862C731.324 723.282 730.788 723.491 730.089 723.491H728.132C727.573 723.491 727.107 723.328 726.734 723.002C726.361 722.676 726.152 722.233 726.105 721.674L724.777 711.82H718.557L717.299 721.674C717.205 722.233 716.972 722.676 716.6 723.002C716.274 723.328 715.831 723.491 715.272 723.491H713.245ZM724.078 706.018L721.842 683.443H721.702L719.325 706.018H724.078ZM735.827 721.465C735.827 722.816 736.503 723.491 737.854 723.491H739.881C741.232 723.491 741.908 722.816 741.908 721.465V693.648H741.978L750.644 721.884C751.064 722.956 751.832 723.491 752.951 723.491H754.698C756.049 723.491 756.725 722.816 756.725 721.465V676.594C756.725 675.243 756.049 674.567 754.698 674.567H752.671C751.32 674.567 750.644 675.243 750.644 676.594V704.621H750.574L742.047 676.175C741.628 675.103 740.859 674.567 739.741 674.567H737.854C736.503 674.567 735.827 675.243 735.827 676.594V721.465ZM775.674 775.91C774.277 775.91 773.578 775.235 773.578 773.884V729.013C773.578 727.662 774.277 726.986 775.674 726.986H777.631C779.029 726.986 779.728 727.662 779.728 729.013V770.04H786.508C787.859 770.04 788.534 770.715 788.534 772.066V773.884C788.534 775.235 787.859 775.91 786.508 775.91H775.674ZM796.606 775.91C795.348 775.91 794.603 775.281 794.37 774.023L788.08 729.153C787.986 728.454 788.103 727.918 788.429 727.545C788.755 727.172 789.245 726.986 789.897 726.986H791.994C793.298 726.986 794.02 727.638 794.16 728.943L798.494 766.615H798.633L802.967 728.873C803.106 727.615 803.829 726.986 805.133 726.986H807.16C807.812 726.986 808.302 727.172 808.628 727.545C808.954 727.918 809.071 728.454 808.977 729.153L802.827 774.023C802.687 775.281 801.965 775.91 800.66 775.91H796.606ZM819.862 735.862L822.099 758.437H817.346L819.722 735.862H819.862Z" fill="#020015"/>
<rect y="914" width="1512" height="68" fill="#020015"/>
<path d="M465.875 724.696C467.437 721.775 469.252 719.005 471.469 716.537C473.637 714.119 476.308 712.004 479.382 710.946L479.13 710.09C477.215 709.838 475.249 710.14 473.334 710.694C471.419 711.299 469.655 712.205 467.992 713.263C464.665 715.429 461.994 718.249 459.676 721.221C459.121 721.976 458.567 722.732 458.013 723.487C457.509 724.243 457.005 725.049 456.551 725.855C455.593 727.416 454.737 729.028 453.981 730.69C453.577 731.496 453.225 732.352 452.872 733.158C452.519 733.964 452.166 734.82 451.864 735.626C451.209 737.288 450.654 739 450.15 740.662C448.991 744.49 448.185 748.368 447.63 752.247L446.572 750.232L445.362 748.268C445.161 747.915 444.959 747.613 444.707 747.311L444.052 746.404C443.8 746.102 443.598 745.8 443.346 745.498L442.59 744.641C442.086 744.087 441.633 743.483 441.028 742.929C440.473 742.375 439.969 741.871 439.365 741.317L437.601 739.857C435.181 738.043 432.561 736.432 429.789 735.273C428.428 734.618 426.966 734.165 425.555 733.661L425.001 733.46C424.799 733.41 424.648 733.359 424.446 733.309L423.337 733.007L421.17 732.453L420.969 733.309C421.573 733.913 422.178 734.467 422.783 735.021L423.69 735.777L424.144 736.129L424.547 736.532C425.656 737.59 426.815 738.497 427.773 739.554C429.839 741.468 431.603 743.483 433.216 745.397C434.829 747.311 436.089 749.325 437.298 751.34C438.508 753.304 439.465 755.42 440.373 757.636C442.137 762.018 443.548 766.903 444.757 772.192C445.362 774.861 445.967 777.632 446.572 780.502C446.723 781.208 446.874 781.963 447.025 782.719C447.227 783.474 447.328 784.179 447.529 784.985C447.882 786.496 448.235 788.057 448.638 789.669L449.495 789.921C450.957 784.733 451.713 779.344 451.813 773.955C451.914 773.451 451.965 772.998 452.065 772.494C452.116 772.041 452.217 771.588 452.317 771.084C453.93 770.228 455.543 769.422 457.257 768.666C459.273 767.76 461.339 766.954 463.405 766.249C465.522 765.543 467.589 764.889 469.756 764.335C471.873 763.781 474.04 763.378 476.257 763.025C478.425 762.673 480.642 762.421 482.809 762.27C485.027 762.119 487.194 762.119 489.412 762.119C491.629 762.169 493.847 762.32 496.014 762.622C497.123 762.723 498.181 762.924 499.29 763.076C499.845 763.126 500.399 763.277 500.903 763.378L502.516 763.68L502.717 762.824C502.264 762.27 501.81 761.816 501.306 761.363C500.802 760.91 500.349 760.456 499.794 760.054C499.29 759.651 498.736 759.298 498.232 758.895C497.98 758.694 497.677 758.543 497.425 758.391L496.619 757.888C496.065 757.586 495.51 757.283 494.956 756.981C494.401 756.679 493.797 756.478 493.242 756.226C492.637 755.974 492.083 755.772 491.478 755.571C490.873 755.369 490.269 755.168 489.664 755.017C487.245 754.362 484.725 754.01 482.255 753.909C479.785 753.808 477.265 753.959 474.796 754.362C469.907 755.168 465.169 756.88 460.986 759.6C459.928 760.255 458.92 761.011 457.962 761.816C457.458 762.219 457.005 762.622 456.551 763.076C456.097 763.529 455.644 763.932 455.19 764.435C454.434 765.292 453.678 766.148 452.973 767.105C453.023 766.954 453.023 766.803 453.073 766.652C453.174 766.45 453.275 766.249 453.376 766.098C454.485 764.083 455.745 762.119 457.105 760.305C459.827 756.629 463.103 753.304 466.833 750.685C468.697 749.376 470.663 748.217 472.729 747.26C474.796 746.303 476.963 745.598 479.181 744.944L480.844 744.541C481.146 744.49 481.398 744.389 481.701 744.339L482.557 744.188L484.271 743.936L485.985 743.785L486.841 743.684C487.144 743.634 487.396 743.634 487.698 743.634L489.412 743.584C489.966 743.533 490.571 743.584 491.125 743.584H492.839L492.889 742.727C490.672 740.965 488.202 739.806 485.581 739.051C484.926 738.849 484.271 738.698 483.616 738.547C482.961 738.396 482.255 738.345 481.6 738.245C481.247 738.194 480.894 738.144 480.592 738.094C480.239 738.094 479.886 738.043 479.584 738.043C478.878 738.043 478.223 737.993 477.517 738.043C474.745 738.194 471.973 738.698 469.302 739.605C466.631 740.562 464.111 741.871 461.793 743.483C460.23 744.591 458.718 745.85 457.408 747.26C457.761 745.9 458.164 744.541 458.567 743.181C460.432 736.835 462.7 730.539 465.875 724.696Z" fill="#020015"/>
<path d="M129.049 633.703C128.99 633.703 128.932 633.684 128.874 633.684C128.407 633.566 127.959 633.41 127.512 633.254C127.006 632.981 126.539 632.669 126.072 632.317C125.625 631.888 125.197 631.439 124.808 630.951C124.438 630.346 124.107 629.702 123.816 629.058C123.29 627.36 122.96 625.623 122.746 623.867C122.687 623.008 122.629 622.15 122.571 621.291C122.434 619.164 121.987 617.31 120.489 615.69C119.186 614.285 117.007 613.192 115.081 613.192C113.058 613.211 110.957 613.797 109.498 615.28C108.136 616.665 106.891 618.676 107.008 620.705C107.377 626.95 107.864 633.684 111.501 639.011C113.408 641.802 115.587 644.203 118.466 646.037C121.501 647.969 124.886 649.023 128.465 649.316C128.913 649.355 129.34 649.335 129.788 649.277C129.73 653.453 129.671 657.649 129.613 661.826C129.457 673.184 129.302 684.542 129.146 695.901C129.127 697.931 129.827 699.999 131.228 701.502C132.531 702.907 134.71 704 136.636 704C140.779 703.961 144.651 700.858 144.709 696.486C144.865 684.738 145.04 672.989 145.195 661.26C148.989 660.577 152.588 658.801 155.72 656.342C160.505 652.575 163.501 646.545 165.116 640.768C168.384 629 168.034 616.568 168.015 604.468C167.995 597.813 168.092 591.119 168.968 584.503C169.201 582.629 168.131 580.248 166.886 578.902C165.583 577.497 163.404 576.404 161.478 576.404C159.455 576.423 157.354 577.009 155.895 578.492C154.377 580.034 153.697 581.771 153.405 583.917C151.771 596.544 152.938 609.308 152.238 621.993C152.062 625.292 151.751 628.57 151.226 631.81C150.681 634.64 149.961 637.431 148.872 640.104C148.308 641.197 147.666 642.232 146.946 643.207C146.46 643.715 145.954 644.203 145.429 644.632C145.468 641.666 145.507 638.699 145.545 635.733C145.818 615.553 146.11 595.373 146.382 575.174C146.538 563.816 146.693 552.458 146.849 541.099C146.868 539.07 146.168 537.001 144.767 535.498C143.464 534.093 141.285 533 139.359 533C135.216 533.039 131.344 536.142 131.286 540.514C131.072 555.795 130.858 571.076 130.663 586.337C129.671 585.811 128.737 585.206 127.843 584.542C127.103 583.839 126.403 583.098 125.78 582.298C125.119 581.263 124.555 580.19 124.069 579.078C123.543 577.438 123.154 575.779 122.94 574.081C122.648 569.417 123.271 564.753 123.893 560.127C124.146 558.254 123.057 555.853 121.812 554.526C120.508 553.121 118.33 552.028 116.404 552.028C114.381 552.048 112.28 552.633 110.821 554.116C110.393 554.624 109.965 555.131 109.537 555.658C108.797 556.849 108.389 558.156 108.33 559.561C107.338 566.86 106.521 574.452 108.583 581.654C110.704 589.089 115.392 595.881 122.318 599.55C124.886 600.916 127.609 601.97 130.43 602.555C130.294 612.977 130.138 623.418 130.002 633.84C129.691 633.762 129.379 633.723 129.049 633.703Z" fill="#020015"/>
<path d="M1379.16 555.172C1378.34 552.903 1377.83 550.523 1377.38 548.144C1376.87 545.434 1376.43 542.724 1376.03 539.993C1375.43 535.3 1375.01 530.585 1374.78 525.848C1374.58 521.773 1371.29 517.829 1366.9 518.027C1362.78 518.204 1358.81 521.464 1359.01 525.848C1359.38 533.581 1360.25 541.292 1361.56 548.937C1362.12 552.242 1362.67 555.635 1363.76 558.807C1365.07 562.619 1367.05 566.54 1370.21 569.184C1372.38 571.013 1374.61 572.356 1377.34 573.238C1378.6 573.634 1379.89 573.833 1381.18 573.877C1381.54 586.809 1382.07 599.741 1382.76 612.674C1383.29 622.522 1383.92 632.348 1384.63 642.174C1384.78 644.267 1385.4 646.183 1386.94 647.703C1388.31 649.069 1390.56 650.083 1392.51 649.995C1396.54 649.818 1400.71 646.536 1400.4 642.174C1400 636.842 1399.65 631.51 1399.31 626.157C1401.51 625.87 1403.67 625.209 1405.65 624.306C1410.31 622.169 1413.38 617.851 1415.07 613.18C1416.49 609.281 1416.6 604.919 1416.64 600.821C1416.71 596.371 1416.76 591.92 1416.8 587.47C1416.87 582.359 1416.93 577.269 1417 572.158C1417.04 568.06 1413.33 564.139 1409.11 564.337C1404.8 564.535 1401.27 567.774 1401.22 572.158C1401.16 578.217 1401.07 584.275 1401 590.312C1400.94 595.467 1401.18 600.755 1400.65 605.91C1400.47 606.879 1400.25 607.827 1399.94 608.774C1399.76 609.083 1399.58 609.413 1399.4 609.699C1399.27 609.832 1399.14 609.964 1399 610.096C1398.8 610.206 1398.6 610.338 1398.4 610.449C1398.05 603.531 1397.74 596.635 1397.47 589.717C1396.89 574.868 1396.56 559.997 1396.42 545.126C1397.22 544.95 1398.02 544.685 1398.82 544.311C1407.85 540.191 1413.51 530.695 1414.04 521.046C1414.27 516.948 1410.24 513.048 1406.16 513.225C1401.69 513.423 1398.51 516.661 1398.27 521.046C1398.27 521.2 1398.25 521.376 1398.22 521.53C1398.02 522.5 1397.76 523.447 1397.42 524.372C1397.09 525.033 1396.74 525.672 1396.36 526.289C1396.38 520.142 1396.45 513.974 1396.54 507.827C1396.6 503.729 1392.87 499.83 1388.65 500.006C1384.31 500.204 1380.83 503.443 1380.76 507.827C1380.49 524.438 1380.49 541.05 1380.78 557.64C1380.56 557.441 1380.36 557.221 1380.16 557.001C1379.8 556.406 1379.47 555.789 1379.16 555.172Z" fill="#020015"/>
<path d="M1512 635.074C1512 635.074 1448.4 636.305 1386.25 642.458C1374.11 638.151 1355.66 632.251 1341.14 630.224C1317.46 626.966 1287.42 660.338 1287.42 660.338C1235.71 677.675 1268.92 681.693 1215.6 691.031C1159.65 700.84 1173.26 762.698 1096.15 761.358C1019.04 760.019 946.462 798.024 834.523 816.7C722.635 835.341 415.649 764.652 385.409 760.743C360.461 757.485 356.58 734.14 323.316 731.642C322.459 724.765 320.998 717.96 316.814 716.151C307.742 712.242 297.914 707.79 284.306 710.758C276.847 712.386 266.616 723.317 258.552 732.945C228.211 726.43 209.916 706.197 181.289 699.863C92.0808 680.245 0 733.235 0 733.235V928H1512V635.074Z" fill="#020015"/>
<path d="M438.458 766.903C438.206 766.5 438.004 766.098 437.752 765.695C437.5 765.292 437.248 764.939 436.946 764.587C436.391 763.831 435.837 763.176 435.232 762.471C432.762 759.852 429.789 757.837 426.563 756.478C424.95 755.823 423.237 755.319 421.523 755.017C419.81 754.715 418.046 754.614 416.231 754.715C415.778 754.715 415.324 754.815 414.921 754.815C414.467 754.866 414.064 754.916 413.61 755.017C413.157 755.118 412.754 755.168 412.3 755.319C411.846 755.42 411.443 755.571 410.99 755.722L410.334 755.974C410.133 756.075 409.931 756.125 409.679 756.226C409.276 756.427 408.822 756.578 408.419 756.83C408.016 757.032 407.613 757.283 407.21 757.535C406.806 757.787 406.403 758.089 406 758.391V759.046L407.159 759.097C407.562 759.097 407.915 759.097 408.318 759.147C409.074 759.197 409.881 759.248 410.637 759.298C412.199 759.399 413.711 759.651 415.274 759.953C416.786 760.255 418.298 760.608 419.81 761.061C421.271 761.514 422.783 762.018 424.194 762.673C425.656 763.277 427.067 763.932 428.428 764.637C429.839 765.342 431.15 766.198 432.51 767.004C433.821 767.86 435.131 768.767 436.391 769.724C437.45 770.53 438.458 771.386 439.415 772.242C439.415 772.595 439.365 772.947 439.365 773.3C439.365 773.653 439.314 774.055 439.314 774.408C438.558 778.387 438.206 782.416 438.407 786.446L439.012 786.395C439.566 785.287 440.07 784.179 440.524 783.121C440.776 782.618 440.978 782.064 441.23 781.56C441.431 781.056 441.683 780.553 441.885 780.049C442.742 778.034 443.598 776.07 444.455 774.207C446.118 770.479 447.832 767.155 449.747 764.184C450.705 762.723 451.713 761.313 452.822 760.054C453.93 758.794 455.14 757.485 456.551 756.326C457.962 755.168 459.474 753.959 461.188 752.901C462.045 752.297 462.952 751.793 463.91 751.189L464.262 750.988L464.615 750.786L465.371 750.383C465.875 750.081 466.379 749.779 466.883 749.426V748.771L465.321 748.872L464.514 748.923C464.363 748.923 464.262 748.923 464.111 748.923L463.708 748.973C462.65 749.124 461.591 749.225 460.533 749.477C458.416 749.879 456.4 750.685 454.434 751.642L452.973 752.398C452.519 752.7 452.066 753.002 451.612 753.304C451.158 753.607 450.705 753.959 450.302 754.312L449.646 754.815C449.445 754.967 449.243 755.168 449.042 755.369L448.437 755.923C448.235 756.125 448.034 756.326 447.832 756.528L446.723 757.787L445.665 759.097C445.917 756.125 445.967 753.153 445.766 750.182C445.665 748.872 445.564 747.512 445.362 746.203C445.262 745.548 445.161 744.893 445.06 744.238C444.959 743.584 444.858 742.929 444.707 742.274C444.405 740.965 444.102 739.655 443.699 738.346C443.498 737.691 443.296 737.036 443.044 736.381C442.792 735.726 442.54 735.072 442.288 734.467C441.179 731.949 439.768 729.431 437.802 727.366C436.845 726.308 435.736 725.351 434.526 724.646C433.317 723.941 432.006 723.387 430.646 723.286L430.343 723.84C432.309 725.099 433.77 727.063 434.879 729.179C436.038 731.294 436.845 733.611 437.45 736.029C438.71 740.813 439.264 745.749 439.566 750.736C439.617 751.793 439.667 752.851 439.718 753.909C439.012 752.7 438.206 751.542 437.298 750.484C435.938 748.923 434.426 747.563 432.762 746.455C431.099 745.346 429.234 744.541 427.37 744.037C426.916 743.936 426.412 743.835 425.958 743.735C425.706 743.684 425.505 743.634 425.253 743.634C425.001 743.584 424.749 743.584 424.547 743.584C424.043 743.533 423.59 743.483 423.086 743.483C422.582 743.483 422.128 743.533 421.624 743.533C419.709 743.684 417.844 744.138 416.03 745.095L415.929 745.749L417.138 746.001C417.542 746.102 417.945 746.152 418.348 746.253L419.507 746.555C419.709 746.606 419.91 746.656 420.112 746.706L420.666 746.908L421.826 747.311L422.934 747.764L423.489 748.016C423.69 748.117 423.842 748.217 424.043 748.268L425.152 748.822C426.563 749.628 427.974 750.484 429.234 751.491C430.494 752.549 431.704 753.657 432.762 754.916C434.93 757.434 436.643 760.356 437.954 763.478C438.609 765.04 439.163 766.652 439.617 768.314C439.667 768.465 439.718 768.616 439.718 768.767C439.718 768.868 439.718 769.019 439.718 769.12C439.214 768.414 438.861 767.659 438.458 766.903Z" fill="#020015"/>
<path d="M344.03 704.262C345.794 702.6 347.71 701.139 349.826 699.981C351.893 698.822 354.262 698.017 356.63 698.017V697.362C355.37 696.707 353.959 696.455 352.498 696.405C351.036 696.354 349.574 696.556 348.214 696.908C345.391 697.614 342.871 698.923 340.553 700.384C339.998 700.787 339.444 701.139 338.89 701.542C338.335 701.945 337.831 702.398 337.327 702.801C336.269 703.658 335.311 704.564 334.404 705.521C333.95 705.974 333.497 706.478 333.043 706.982C332.59 707.485 332.186 707.939 331.733 708.442C330.876 709.45 330.12 710.457 329.314 711.515C327.6 713.882 326.088 716.35 324.778 718.919L324.526 717.257L324.173 715.645C324.122 715.393 324.022 715.091 323.971 714.839L323.719 714.033C323.618 713.781 323.568 713.479 323.467 713.227L323.165 712.472C322.963 711.968 322.762 711.414 322.51 710.91C322.258 710.407 322.006 709.903 321.754 709.399L320.897 707.989C319.637 706.176 318.226 704.413 316.613 702.952C315.806 702.147 314.95 701.542 314.093 700.837L313.79 700.585C313.69 700.484 313.538 700.434 313.438 700.333L312.732 699.88L311.371 698.973L311.018 699.528C311.27 700.082 311.573 700.636 311.875 701.139L312.329 701.895L312.53 702.247L312.732 702.6C313.236 703.607 313.79 704.514 314.244 705.471C315.202 707.284 315.958 709.097 316.613 710.81C317.268 712.522 317.671 714.235 317.974 715.897C318.326 717.559 318.478 719.271 318.578 720.984C318.73 724.459 318.528 728.136 318.125 732.115C317.923 734.129 317.671 736.144 317.369 738.31C317.318 738.864 317.218 739.368 317.167 739.922C317.117 740.476 317.016 741.03 316.966 741.584C316.814 742.692 316.714 743.85 316.613 745.109L317.117 745.462C319.385 742.238 321.199 738.713 322.56 734.986C322.711 734.683 322.913 734.331 323.064 734.029C323.215 733.726 323.417 733.424 323.568 733.122C324.878 732.921 326.239 732.719 327.55 732.618C329.162 732.467 330.775 732.417 332.388 732.417C334.001 732.417 335.614 732.467 337.226 732.618C338.839 732.769 340.452 732.971 342.014 733.273C343.627 733.525 345.19 733.878 346.752 734.331C348.314 734.734 349.826 735.288 351.338 735.842C352.85 736.396 354.362 737.051 355.774 737.756C356.53 738.108 357.235 738.461 357.941 738.864C358.294 739.065 358.646 739.267 358.999 739.468L360.058 740.073L360.41 739.519C360.259 739.015 360.007 738.612 359.806 738.159C359.604 737.756 359.352 737.302 359.1 736.9C358.848 736.497 358.546 736.144 358.294 735.741C358.142 735.54 357.991 735.389 357.84 735.187L357.386 734.633C357.084 734.28 356.782 733.928 356.429 733.626C356.126 733.273 355.774 733.021 355.421 732.669C355.068 732.367 354.715 732.064 354.362 731.762C354.01 731.51 353.606 731.208 353.254 730.956C351.742 729.949 350.078 729.093 348.415 728.388C346.702 727.733 344.938 727.229 343.174 726.877C339.595 726.272 335.916 726.323 332.338 727.179C331.43 727.38 330.574 727.632 329.717 727.985C329.263 728.136 328.86 728.287 328.457 728.488C328.054 728.69 327.6 728.891 327.197 729.093C326.441 729.496 325.735 729.899 325.03 730.402C325.08 730.302 325.13 730.201 325.181 730.1C325.282 729.999 325.433 729.899 325.534 729.798C326.794 728.69 328.104 727.632 329.515 726.675C332.287 724.812 335.311 723.301 338.537 722.394C340.15 721.941 341.762 721.638 343.426 721.437C345.089 721.286 346.752 721.286 348.415 721.387L349.675 721.538C349.877 721.538 350.078 721.588 350.28 721.588L350.885 721.689L352.145 721.89L353.354 722.193L353.959 722.344C354.161 722.394 354.362 722.444 354.564 722.545L355.774 722.898C356.177 722.998 356.58 723.2 356.983 723.301L358.193 723.754L358.445 723.149C357.336 721.387 355.925 719.976 354.262 718.818C353.858 718.516 353.455 718.264 353.002 718.012C352.548 717.76 352.145 717.559 351.691 717.307C351.49 717.206 351.238 717.055 351.036 716.954C350.784 716.854 350.582 716.753 350.33 716.652C349.877 716.501 349.373 716.3 348.919 716.149C346.954 715.594 344.938 715.242 342.871 715.242C340.805 715.242 338.738 715.544 336.773 716.098C335.412 716.501 334.102 717.005 332.842 717.66C333.446 716.803 334.001 715.947 334.606 715.141C337.378 711.364 340.452 707.586 344.03 704.262Z" fill="#020015"/>
<path d="M1103.92 745.093C1101.4 744.791 1098.88 744.69 1096.36 744.841C1095.71 744.891 1095.1 744.942 1094.45 745.042C1093.84 745.143 1093.19 745.194 1092.58 745.345C1091.98 745.445 1091.32 745.546 1090.72 745.697C1090.11 745.848 1089.51 745.999 1088.9 746.201L1088 746.503C1087.7 746.604 1087.39 746.705 1087.09 746.805C1086.49 747.057 1085.93 747.259 1085.33 747.51C1084.77 747.762 1084.17 748.064 1083.61 748.367C1083.06 748.669 1082.5 749.021 1082 749.424L1082.05 750.18H1083.71C1084.27 750.18 1084.82 750.18 1085.38 750.18C1086.49 750.23 1087.59 750.23 1088.75 750.331C1090.97 750.432 1093.19 750.684 1095.41 750.986C1097.62 751.338 1099.79 751.691 1101.96 752.195C1104.13 752.698 1106.29 753.252 1108.36 753.907C1110.48 754.562 1112.54 755.267 1114.61 756.073C1116.68 756.879 1118.64 757.785 1120.61 758.742C1120.86 758.843 1121.11 758.994 1121.31 759.095C1121.11 761.261 1120.91 763.376 1120.66 765.491L1121.51 765.642C1122.17 764.837 1122.72 764.031 1123.23 763.225C1123.43 764.031 1123.58 764.837 1123.73 765.642H1124.64L1124.69 765.693C1125.44 764.534 1126.25 763.376 1127.11 762.268C1127.16 762.318 1127.21 762.318 1127.26 762.369C1127.81 764.786 1128.62 767.204 1129.58 769.571L1130.43 769.269C1130.79 767.808 1131.04 766.448 1131.24 765.088C1131.24 765.038 1131.24 765.038 1131.24 764.988C1131.44 765.139 1131.59 765.239 1131.8 765.391L1132.4 764.837C1132.2 764.081 1131.95 763.376 1131.64 762.671C1131.74 762.167 1131.8 761.663 1131.9 761.109C1132.2 759.246 1132.5 757.483 1132.8 755.72C1134.01 754.461 1135.27 753.252 1136.58 752.094C1138.1 750.734 1139.66 749.475 1141.27 748.266C1142.88 747.007 1144.55 745.899 1146.26 744.791C1147.97 743.733 1149.79 742.726 1151.55 741.769C1153.37 740.862 1155.23 740.006 1157.1 739.25C1158.05 738.847 1159.01 738.495 1159.97 738.142C1160.42 737.941 1160.93 737.79 1161.43 737.639L1162.89 737.135L1162.69 736.379C1162.09 736.178 1161.53 736.027 1160.93 735.876C1160.32 735.725 1159.77 735.624 1159.16 735.574C1158.56 735.473 1158 735.422 1157.4 735.372C1157.1 735.322 1156.79 735.322 1156.54 735.322H1155.68C1155.08 735.322 1154.53 735.322 1153.92 735.372C1153.32 735.422 1152.76 735.473 1152.21 735.574C1151.6 735.624 1151.05 735.725 1150.49 735.825C1149.94 735.926 1149.33 736.027 1148.78 736.178C1146.51 736.732 1144.34 737.538 1142.28 738.545C1140.21 739.553 1138.25 740.761 1136.43 742.121C1136.23 742.272 1136.03 742.423 1135.83 742.625C1136.08 741.869 1136.33 741.164 1136.58 740.409C1137.34 738.394 1138.15 736.48 1139.25 734.617C1140.31 732.753 1141.47 730.889 1142.93 729.026C1144.4 727.162 1146.01 725.248 1147.97 723.334C1148.88 722.327 1149.99 721.421 1151.05 720.363L1151.45 719.96L1151.85 719.607L1152.71 718.852C1153.27 718.298 1153.87 717.794 1154.42 717.19L1154.17 716.485L1152.01 717.24L1150.95 717.593C1150.75 717.643 1150.59 717.693 1150.39 717.794L1149.89 717.996C1148.48 718.6 1147.07 719.104 1145.76 719.859C1143.03 721.169 1140.51 722.881 1138.2 724.694L1136.53 726.155C1135.98 726.659 1135.52 727.213 1134.97 727.716C1134.42 728.22 1134.01 728.774 1133.56 729.328L1132.85 730.184C1132.6 730.436 1132.45 730.789 1132.25 731.041L1131.64 731.897C1131.44 732.199 1131.24 732.501 1131.04 732.803L1130.84 733.156C1130.84 732.249 1130.79 731.343 1130.69 730.436C1130.59 728.875 1130.38 727.364 1130.13 725.802C1129.98 725.047 1129.83 724.241 1129.68 723.486C1129.53 722.73 1129.38 721.924 1129.17 721.169C1128.77 719.607 1128.32 718.046 1127.71 716.535C1127.41 715.779 1127.11 714.974 1126.81 714.218C1126.45 713.463 1126.1 712.707 1125.7 711.901C1124.13 708.879 1122.07 705.857 1119.35 703.289C1117.99 701.979 1116.42 700.821 1114.71 699.864C1113 698.907 1111.08 698.252 1109.17 698L1108.71 698.655C1111.48 700.266 1113.65 702.634 1115.21 705.202C1116.83 707.771 1117.99 710.541 1118.84 713.362C1120.61 719.003 1121.46 724.845 1121.87 730.638C1122.17 734.516 1122.27 738.444 1122.22 742.323C1121.31 741.064 1120.3 739.905 1119.2 738.747C1117.28 736.833 1115.06 735.171 1112.69 733.76C1110.27 732.35 1107.65 731.292 1104.93 730.537C1104.28 730.386 1103.57 730.235 1102.87 730.084C1102.51 730.033 1102.16 729.932 1101.86 729.882C1101.5 729.832 1101.15 729.781 1100.8 729.731C1100.09 729.681 1099.44 729.58 1098.73 729.53C1098.03 729.53 1097.37 729.479 1096.67 729.479C1093.94 729.53 1091.22 729.932 1088.65 730.889L1088.5 731.645L1090.22 732.048C1090.77 732.199 1091.37 732.249 1091.93 732.451L1093.59 732.904C1093.89 733.005 1094.15 733.055 1094.45 733.156L1095.26 733.408L1096.92 733.962L1098.53 734.566L1099.34 734.868C1099.59 734.969 1099.84 735.12 1100.14 735.221L1101.71 735.926C1103.72 736.984 1105.69 738.041 1107.5 739.351C1109.32 740.661 1110.98 742.071 1112.54 743.632C1114.21 745.294 1115.67 747.057 1116.98 748.921C1115.16 748.064 1113.25 747.309 1111.23 746.705C1108.86 745.949 1106.39 745.445 1103.92 745.093Z" fill="#020015"/>
<path d="M1445.47 621.341C1443.71 620.686 1441.89 620.183 1440.03 619.931C1439.58 619.881 1439.12 619.83 1438.67 619.78C1438.21 619.729 1437.76 619.729 1437.31 619.729C1436.85 619.729 1436.4 619.729 1435.95 619.78C1435.49 619.83 1435.04 619.881 1434.59 619.931L1433.93 620.032C1433.73 620.082 1433.48 620.082 1433.28 620.183C1432.82 620.284 1432.42 620.384 1431.96 620.535C1431.51 620.636 1431.11 620.838 1430.65 621.039C1430.25 621.24 1429.8 621.442 1429.39 621.694V622.399L1430.6 622.651C1431.01 622.751 1431.41 622.802 1431.81 622.903C1432.62 623.104 1433.43 623.305 1434.23 623.557C1435.85 624.011 1437.41 624.565 1438.97 625.169C1440.53 625.824 1442.1 626.479 1443.61 627.284C1445.12 628.09 1446.63 628.896 1448.09 629.853C1449.55 630.76 1451.02 631.717 1452.43 632.774C1453.64 633.681 1454.85 634.638 1456.01 635.645C1456.56 637.207 1457.11 638.768 1457.67 640.38C1457.82 640.833 1457.97 641.286 1458.17 641.74C1458.07 642.395 1457.97 643.049 1457.97 643.754L1458.53 644.157C1458.63 644.006 1458.78 643.855 1458.88 643.754C1458.88 643.805 1458.88 643.805 1458.93 643.855C1459.33 645.064 1459.79 646.273 1460.34 647.532L1461.05 647.683C1461.35 645.467 1461.5 643.2 1461.5 640.934C1461.55 640.883 1461.55 640.883 1461.6 640.833C1462.46 641.74 1463.31 642.646 1464.07 643.603L1464.12 643.553L1464.83 643.452C1464.78 642.697 1464.78 641.941 1464.78 641.186C1465.33 641.891 1465.88 642.546 1466.54 643.2L1467.19 642.999C1466.59 641.135 1466.04 639.221 1465.53 637.307C1465.68 637.156 1465.83 637.056 1466.04 636.904C1467.4 635.847 1468.76 634.789 1470.17 633.832C1471.58 632.875 1473.04 631.969 1474.55 631.163C1476.06 630.307 1477.58 629.551 1479.19 628.846C1480.75 628.141 1482.36 627.587 1484.03 627.033C1485.69 626.529 1487.35 626.025 1489.02 625.673C1489.87 625.471 1490.73 625.32 1491.59 625.169C1491.99 625.068 1492.44 625.018 1492.9 624.968L1494.21 624.766L1494.11 624.061C1493.6 623.759 1493.15 623.557 1492.65 623.305C1492.14 623.104 1491.69 622.852 1491.18 622.701C1490.68 622.5 1490.23 622.399 1489.72 622.248C1489.47 622.147 1489.22 622.097 1488.97 622.046L1488.21 621.895C1487.71 621.795 1487.2 621.744 1486.7 621.643C1486.2 621.593 1485.69 621.543 1485.19 621.543C1484.68 621.492 1484.18 621.492 1483.68 621.492C1483.17 621.492 1482.67 621.492 1482.21 621.543C1480.25 621.694 1478.28 622.046 1476.42 622.6C1474.55 623.205 1472.74 623.91 1471.08 624.867C1469.66 625.622 1468.35 626.529 1467.09 627.536C1467.75 625.673 1468.56 623.91 1469.51 622.248C1470.42 620.686 1471.43 619.226 1472.59 617.816C1473.75 616.456 1475.06 615.247 1476.42 614.038L1477.48 613.232C1477.68 613.081 1477.83 612.98 1478.03 612.829L1478.58 612.477L1479.69 611.721L1480.85 611.066L1481.46 610.714C1481.66 610.613 1481.86 610.512 1482.06 610.412L1483.27 609.807C1483.68 609.606 1484.08 609.455 1484.53 609.253L1485.79 608.699L1485.54 608.044C1483.37 607.49 1481.21 607.39 1479.14 607.692C1478.64 607.742 1478.08 607.843 1477.58 607.944C1477.07 608.044 1476.57 608.246 1476.01 608.397C1475.76 608.498 1475.51 608.548 1475.26 608.649C1475.01 608.75 1474.75 608.85 1474.5 608.951C1474 609.152 1473.49 609.354 1473.04 609.606C1471.13 610.613 1469.26 611.872 1467.7 613.434C1466.09 614.995 1464.72 616.758 1463.62 618.672C1462.96 619.83 1462.41 620.989 1461.95 622.248C1461.2 618.722 1460.59 615.196 1460.09 611.671C1459.33 606.382 1458.93 601.043 1459.23 595.755C1459.38 593.136 1459.79 590.466 1460.54 587.998C1461.3 585.531 1462.51 583.113 1464.32 581.35L1463.87 580.846C1462.41 581.249 1461.1 582.106 1459.94 583.163C1458.78 584.221 1457.82 585.48 1456.96 586.79C1455.3 589.459 1454.29 592.38 1453.64 595.302C1453.49 596.057 1453.33 596.762 1453.18 597.518C1453.08 598.273 1452.98 598.978 1452.88 599.734C1452.68 601.195 1452.63 602.655 1452.63 604.116C1452.63 604.821 1452.63 605.576 1452.63 606.282C1452.63 606.987 1452.68 607.692 1452.73 608.447C1452.83 609.858 1452.98 611.268 1453.18 612.678C1453.28 613.484 1453.44 614.34 1453.59 615.146L1453.38 614.894C1453.18 614.642 1452.98 614.391 1452.78 614.139L1452.12 613.434C1451.92 613.182 1451.72 612.93 1451.47 612.728L1450.76 612.074C1450.31 611.62 1449.86 611.167 1449.35 610.764C1448.85 610.361 1448.4 609.908 1447.89 609.555L1446.33 608.447C1444.21 607.037 1441.99 605.828 1439.63 604.922C1438.47 604.418 1437.26 604.116 1436.1 603.713L1435.64 603.562C1435.49 603.511 1435.34 603.511 1435.19 603.461L1434.28 603.26L1432.52 602.857L1432.42 603.511C1432.97 604.015 1433.48 604.418 1434.03 604.821L1434.84 605.425L1435.24 605.728L1435.59 606.03C1436.6 606.886 1437.56 607.541 1438.47 608.347C1440.33 609.807 1441.94 611.369 1443.41 612.88C1444.87 614.391 1446.08 615.952 1447.24 617.513C1448.4 619.075 1449.4 620.737 1450.31 622.449C1450.66 623.054 1450.97 623.708 1451.32 624.363C1451.12 624.263 1450.97 624.111 1450.76 624.011C1449 622.903 1447.24 622.046 1445.47 621.341Z" fill="#020015"/>
<path d="M655.312 823C655.866 819.45 655.645 813.682 657.974 803.698C659.416 795.156 662.966 775.078 665.961 756.442C668.656 739.674 671.414 727.821 672.284 722.164C673.615 713.511 676.924 694.542 680.271 675.573C683.466 657.469 686.705 646.066 687.593 642.627C688.48 638.633 689.589 628.649 690.921 618.998" stroke="#020015" strokeLinecap="round" strokeLinejoin="round"/>
<path d="M642.998 818.008C644.995 818.341 650.586 818.94 656.976 818.674" stroke="#020015" strokeLinecap="round" strokeLinejoin="round"/>
<path d="M644.662 810.687C646.659 811.019 650.253 811.286 656.643 811.019" stroke="#020015" strokeLinecap="round" strokeLinejoin="round"/>
<path d="M646.054 803.032C647.986 803.637 651.509 804.396 657.875 805.012" stroke="#020015" strokeLinecap="round" strokeLinejoin="round"/>
<path d="M647.99 795.045C649.922 795.65 652.649 797.042 658.972 797.375" stroke="#020015" strokeLinecap="round" strokeLinejoin="round"/>
<path d="M649.453 786.393C651.384 786.998 654.112 788.39 660.435 788.722" stroke="#020015" strokeLinecap="round" strokeLinejoin="round"/>
<path d="M650.682 779.737C652.667 780.13 655.528 781.221 661.851 780.872" stroke="#020015" strokeLinecap="round" strokeLinejoin="round"/>
<path d="M652.013 772.416C653.999 772.809 656.976 773.747 662.966 774.412" stroke="#020015" strokeLinecap="round" strokeLinejoin="round"/>
<path d="M653.98 765.094C655.966 765.488 658.328 766.425 664.319 767.091" stroke="#020015" strokeLinecap="round" strokeLinejoin="round"/>
<path d="M655.318 757.378C657.321 757.667 659.729 758.481 665.746 758.833" stroke="#020015" strokeLinecap="round" strokeLinejoin="round"/>
<path d="M656.643 750.677C658.646 750.966 661.054 751.78 667.071 752.132" stroke="#020015" strokeLinecap="round" strokeLinejoin="round"/>
<path d="M657.974 743.356C659.978 743.645 662.385 744.458 668.402 744.81" stroke="#020015" strokeLinecap="round" strokeLinejoin="round"/>
<path d="M659.971 735.476C661.974 735.765 663.632 736.141 669.733 736.824" stroke="#020015" strokeLinecap="round" strokeLinejoin="round"/>
<path d="M661.302 728.597C663.319 728.77 664.995 729.049 671.126 729.376" stroke="#020015" strokeLinecap="round" strokeLinejoin="round"/>
<path d="M664.055 711.331C666.033 711.761 667.66 712.253 673.698 713.363" stroke="#020015" strokeLinecap="round" strokeLinejoin="round"/>
<path d="M665.954 703.739C667.968 703.946 669.639 704.253 675.764 704.683" stroke="#020015" strokeLinecap="round" strokeLinejoin="round"/>
<path d="M667.292 697.151C669.306 697.358 670.977 697.665 677.102 698.095" stroke="#020015" strokeLinecap="round" strokeLinejoin="round"/>
<path d="M668.623 688.499C670.62 688.885 672.284 689.217 678.433 689.443" stroke="#020015" strokeLinecap="round" strokeLinejoin="round"/>
<path d="M670.953 679.899C672.95 680.285 673.123 680.34 679.273 680.565" stroke="#020015" strokeLinecap="round" strokeLinejoin="round"/>
<path d="M672.617 671.767C674.614 672.153 674.788 672.207 680.937 672.432" stroke="#020015" strokeLinecap="round" strokeLinejoin="round"/>
<path d="M673.948 663.78C675.945 664.166 676.119 664.22 682.268 664.445" stroke="#020015" strokeLinecap="round" strokeLinejoin="round"/>
<path d="M676.014 655.299C677.951 655.92 678.117 655.995 684.195 656.953" stroke="#020015" strokeLinecap="round" strokeLinejoin="round"/>
<path d="M677.343 647.951C679.28 648.573 679.446 648.648 685.524 649.605" stroke="#020015" strokeLinecap="round" strokeLinejoin="round"/>
<path d="M679.34 641.295C681.276 641.917 681.442 641.992 687.521 642.949" stroke="#020015" strokeLinecap="round" strokeLinejoin="round"/>
<path d="M680.671 634.64C682.608 635.261 682.774 635.336 688.852 636.294" stroke="#020015" strokeLinecap="round" strokeLinejoin="round"/>
<path d="M681.337 627.984C683.273 628.605 683.439 628.68 689.518 629.638" stroke="#020015" strokeLinecap="round" strokeLinejoin="round"/>
<path d="M681.27 622.326C683.206 622.948 686.594 622.659 690.183 623.648" stroke="#020015" strokeLinecap="round" strokeLinejoin="round"/>
<path d="M662.155 719.169C663.964 719.834 666.627 721.831 672.284 722.164" stroke="#020015" strokeLinecap="round" strokeLinejoin="round"/>
<path d="M642 823C642.555 819.45 644.33 809.955 646.992 800.37C648.434 791.828 652.317 770.618 656.31 754.112C660.304 737.606 661.746 724.826 661.968 720.5C664.075 712.402 669.089 691.68 672.284 673.576C675.479 655.472 678.052 644.069 678.94 640.63C679.827 636.636 682.002 626.519 683.599 618" stroke="#020015" strokeLinecap="round" strokeLinejoin="round"/>
<path d="M852.851 819.866C852.528 816.259 853.578 810.6 851.59 800.313C850.662 791.613 848.256 771.131 846.443 752.175C844.813 735.12 842.463 722.909 841.967 717.162C841.209 708.372 841.634 715.748 839.369 696.399" stroke="#020015" strokeLinecap="round" strokeLinejoin="round"/>
<path d="M870.763 817.176C867.919 817.141 860 816.715 851.071 815.29" stroke="#020015" strokeLinecap="round" strokeLinejoin="round"/>
<path d="M869.367 809.64C866.524 809.605 861.448 809.214 852.519 807.789" stroke="#020015" strokeLinecap="round" strokeLinejoin="round"/>
<path d="M868.396 801.825C865.608 802.071 860.569 802.179 851.561 801.63" stroke="#020015" strokeLinecap="round" strokeLinejoin="round"/>
<path d="M866.703 793.583C863.916 793.828 859.912 794.707 851 793.885" stroke="#020015" strokeLinecap="round" strokeLinejoin="round"/>
<path d="M865.761 784.768C862.974 785.014 858.97 785.893 850.058 785.071" stroke="#020015" strokeLinecap="round" strokeLinejoin="round"/>
<path d="M864.891 777.969C862.055 777.997 857.902 778.554 849.078 777.058" stroke="#020015" strokeLinecap="round" strokeLinejoin="round"/>
<path d="M863.962 770.494C861.126 770.522 856.829 770.906 848.342 770.474" stroke="#020015" strokeLinecap="round" strokeLinejoin="round"/>
<path d="M862.14 762.903C859.304 762.931 855.87 763.427 847.383 762.995" stroke="#020015" strokeLinecap="round" strokeLinejoin="round"/>
<path d="M861.253 755.037C858.405 754.959 854.924 755.324 846.439 754.577" stroke="#020015" strokeLinecap="round" strokeLinejoin="round"/>
<path d="M860.253 748.176C857.406 748.098 853.924 748.463 845.439 747.716" stroke="#020015" strokeLinecap="round" strokeLinejoin="round"/>
<path d="M859.324 740.701C856.477 740.623 852.995 740.988 844.51 740.241" stroke="#020015" strokeLinecap="round" strokeLinejoin="round"/>
<path d="M857.533 732.553C854.686 732.475 852.313 732.545 843.666 732.108" stroke="#020015" strokeLinecap="round" strokeLinejoin="round"/>
<path d="M856.548 725.516C853.696 725.319 851.309 725.29 842.667 724.497" stroke="#020015" strokeLinecap="round" strokeLinejoin="round"/>
<path d="M854.899 707.958C852.069 708.022 849.725 708.212 841.112 708.211" stroke="#020015" strokeLinecap="round" strokeLinejoin="round"/>
<path d="M853.208 700.112C850.357 699.95 847.973 699.949 839.327 699.26" stroke="#020015" strokeLinecap="round" strokeLinejoin="round"/>
<path d="M856.559 716.046C853.936 716.375 849.946 717.863 841.967 717.162" stroke="#020015" strokeLinecap="round" strokeLinejoin="round"/>
<path d="M870.864 820.056C869.538 816.409 869.928 808.977 867.421 799.024C866.493 790.323 863.239 768.67 860.279 751.63C857.332 734.66 856.94 721.631 855.945 717.285C854.027 708.901 853.625 705.682 853.293 699.383" stroke="#020015" strokeLinecap="round" strokeLinejoin="round"/>
<path d="M913.399 680.883L900 804.037L902.113 804.281L915.512 681.127L913.399 680.883Z" fill="#020015"/>
<path d="M941.06 680.934L938.947 681.178L952.37 804.332L954.483 804.088L941.06 680.934Z" fill="#020015"/>
<path d="M952.504 797.297H901.935C901.482 797.297 901.078 797.001 900.93 796.56C900.782 796.119 900.922 795.63 901.279 795.342L925.442 775.833L905.354 759.68C905.107 759.481 904.958 759.181 904.946 758.858C904.934 758.536 905.061 758.225 905.293 758.007L926.111 738.516L909.352 722.235C908.94 721.836 908.905 721.173 909.273 720.729L925.627 700.985L913.247 685.567L914.886 684.172L927.027 699.294L939.563 684.159L941.181 685.58L928.403 701.007L945.322 722.08C945.684 722.53 945.638 723.193 945.218 723.587L929.24 738.546L949.144 757.881C949.369 758.099 949.49 758.408 949.476 758.726C949.462 759.044 949.313 759.341 949.07 759.537L928.892 775.828L953.157 795.34C953.515 795.627 953.656 796.117 953.508 796.559C953.362 797.001 952.958 797.297 952.504 797.297ZM905.014 795.109H949.415L927.169 777.221L905.014 795.109ZM907.657 758.754L927.167 774.441L946.787 758.601L927.663 740.024L907.657 758.754ZM911.548 721.358L927.69 737.04L943.038 722.67L927.003 702.699L911.548 721.358Z" fill="#020015"/>
<path d="M944.503 721.683H910.083V723.872H944.503V721.683Z" fill="#020015"/>
<path d="M948.414 757.582H906.009V759.771H948.414V757.582Z" fill="#020015"/>
<path d="M950.919 680.69H903.73V685.815H950.919V680.69Z" fill="#020015"/>
<path d="M955.079 673.252H899.57C899.255 673.252 899 672.989 899 672.665C899 672.341 899.255 672.079 899.57 672.079H955.079C955.393 672.079 955.648 672.341 955.648 672.665C955.648 672.989 955.393 673.252 955.079 673.252Z" fill="#020015"/>
<path d="M955.079 681.276H899.57C899.255 681.276 899 681.013 899 680.689C899 680.365 899.255 680.103 899.57 680.103H955.079C955.393 680.103 955.648 680.365 955.648 680.689C955.648 681.014 955.393 681.276 955.079 681.276Z" fill="#020015"/>
<path d="M944.491 672.665H943.959V680.103H944.491V672.665Z" fill="#020015"/>
<path d="M947.435 672.665H946.903V680.103H947.435V672.665Z" fill="#020015"/>
<path d="M950.379 672.665H949.847V680.103H950.379V672.665Z" fill="#020015"/>
<path d="M953.323 672.665H952.791V680.103H953.323V672.665Z" fill="#020015"/>
<path d="M900.335 672.665H899.795V680.103H900.335V672.665Z" fill="#020015"/>
<path d="M903.373 672.665H902.832V680.103H903.373V672.665Z" fill="#020015"/>
<path d="M906.41 672.665H905.87V680.103H906.41V672.665Z" fill="#020015"/>
<path d="M909.448 672.665H908.908V680.103H909.448V672.665Z" fill="#020015"/>
<path d="M912.486 672.665H911.946V680.103H912.486V672.665Z" fill="#020015"/>
<path d="M915.523 672.665H914.983V680.103H915.523V672.665Z" fill="#020015"/>
<path d="M918.56 672.665H918.02V680.103H918.56V672.665Z" fill="#020015"/>
<path d="M921.599 672.665H921.058V680.103H921.599V672.665Z" fill="#020015"/>
<path d="M924.636 672.665H924.096V680.103H924.636V672.665Z" fill="#020015"/>
<path d="M927.673 672.665H927.133V680.103H927.673V672.665Z" fill="#020015"/>
<path d="M930.711 672.665H930.171V680.103H930.711V672.665Z" fill="#020015"/>
<path d="M933.749 672.665H933.209V680.103H933.749V672.665Z" fill="#020015"/>
<path d="M936.786 672.665H936.246V680.103H936.786V672.665Z" fill="#020015"/>
<path d="M939.824 672.665H939.284V680.103H939.824V672.665Z" fill="#020015"/>
<path d="M942.861 672.665H942.321V680.103H942.861V672.665Z" fill="#020015"/>
<path d="M945.924 672.69H945.384V680.128H945.924V672.69Z" fill="#020015"/>
<path d="M948.961 672.69H948.421V680.128H948.961V672.69Z" fill="#020015"/>
<path d="M951.999 672.69H951.459V680.128H951.999V672.69Z" fill="#020015"/>
<path d="M955.037 672.69H954.497V680.128H955.037V672.69Z" fill="#020015"/>
<path d="M906.254 661.277V680.127H948.185V661.277H906.254ZM920.289 675.501H907.773V665.48H920.289V675.501ZM933.477 675.501H920.962V665.48H933.477V675.501ZM946.666 675.501H934.15V665.48H946.666V675.501Z" fill="#020015"/>
<path d="M928.08 645L901.394 661.863H954.766L928.08 645Z" fill="#020015"/>
</svg>
