<svg xmlns="http://www.w3.org/2000/svg" width="377" height="469" fill="none"><path fill="#020015" fillRule="evenodd" d="m159.151 29.215-38.04 10.192 4.077 15.217-87.872 23.544C33.227 69.96 23.8 65.482 14.599 67.948 4.095 70.761-2.139 81.558.676 92.062c2.815 10.505 13.612 16.738 24.116 13.924 9.202-2.466 15.127-11.057 14.562-20.21l56.851-15.233C39.253 106.65 7.347 173.86 17.655 242.44l-16.287 4.364 10.193 38.039 16.286-4.363a172.132 172.132 0 0 0 25.974 44.824v99.141c0 2.91 1.615 4.365 4.846 4.365h4.004c3.372 0 5.057-1.455 5.057-4.365V360.48H91.12c3.231 0 4.847-1.455 4.847-4.365v-3.607c0-2.91-1.616-4.365-4.847-4.365H67.73v-40.05h23.39c3.231 0 4.847-1.455 4.847-4.365v-3.417c0-2.91-1.616-4.365-4.847-4.365H58.667c-3.23 0-4.846 1.455-4.846 4.365v11.898a164.344 164.344 0 0 1-18.314-33.781l14.094-3.776-10.193-38.04-14.094 3.777c-6.5-44.911 5.937-89.146 32.017-123.535V258.15c0 3.838 2.736 5.757 8.208 5.757h29.978c9.754 0 17.962-2.252 24.624-6.758 6.662-4.672 9.993-10.513 9.993-17.521V112.974c0-7.008-3.331-12.765-9.993-17.271-6.662-4.672-14.87-7.008-24.624-7.008h-11.03a164.284 164.284 0 0 1 43.04-25.344l3.777 14.096 38.04-10.193-3.777-14.095c47.004-6.803 93.267 7.138 128.277 35.752-3.546-.812-7.401-1.218-11.567-1.218h-2.855c-9.992 0-18.32 2.337-24.981 7.009-6.424 4.505-9.636 10.262-9.636 17.271v19.273c0 5.841.833 11.097 2.498 15.769 1.666 4.673 4.521 9.429 8.565 14.268l33.19 43.052c3.093 3.838 4.639 9.178 4.639 16.019v20.776c0 2.169-1.071 4.005-3.212 5.506-2.141 1.502-4.758 2.253-7.851 2.253h-3.569c-3.093 0-5.71-.751-7.851-2.253-2.141-1.501-3.212-3.337-3.212-5.506l.714-30.287c0-3.838-2.736-5.757-8.208-5.757h-7.495c-5.472 0-8.208 1.919-8.208 5.757v29.786c0 7.009 3.212 12.849 9.636 17.521 6.661 4.506 14.989 6.759 24.981 6.759h3.212c9.992 0 18.201-2.253 24.624-6.759 6.662-4.672 9.993-10.512 9.993-17.521v-17.521c0-6.508-.714-11.764-2.141-15.769-1.19-4.005-4.283-9.011-9.279-15.019l-31.762-41.3c-3.807-4.505-5.71-9.011-5.71-13.516v-26.032c0-2.169 1.071-4.005 3.212-5.506 2.141-1.502 4.758-2.253 7.851-2.253h3.212c3.093 0 5.71.751 7.851 2.253 2.141 1.501 3.212 3.337 3.212 5.506v34.542c0 3.838 2.736 5.757 8.208 5.757h6.781c5.472 0 8.208-1.919 8.208-5.757v-34.131a164.296 164.296 0 0 1 25.712 43.489l-14.094 3.777 10.192 38.039 14.095-3.777c5.243 36.222-1.832 72.004-18.449 102.535h-36.793c-3.231 0-4.847 1.455-4.847 4.365v3.037c0 2.911 1.616 4.366 4.847 4.366h11.379v116.732c0 2.91 1.616 4.365 4.847 4.365h4.214c3.231 0 4.847-1.455 4.847-4.365v-97.402a174.17 174.17 0 0 0 14.093-19.825c1.349-.617 2.058-1.81 2.127-3.58 19.129-33.081 27.381-72.449 21.395-112.28l16.285-4.364-10.193-38.039-16.286 4.364C324.9 88.774 263.663 46.521 196.286 43.727l56.853-15.233c4.089 8.21 13.515 12.687 22.717 10.221 10.504-2.814 16.738-13.611 13.923-24.116C286.964 4.095 276.167-2.139 265.663.676c-9.202 2.465-15.127 11.056-14.563 20.21l-87.872 23.545-4.077-15.216Zm168.151 278.499h-4.458v6.455a166.266 166.266 0 0 0 4.458-6.455ZM155.723 46.852l-.103-.383-2.039-7.608-22.823 6.116 4.184 15.617 1.931 7.206 22.824-6.115-1.931-7.207-.107-.4-1.936-7.226Zm189.641 115.935v.001l7.626-2.044 7.992-2.142 6.116 22.824-22.824 6.115-6.116-22.823 7.206-1.931ZM19.007 250.233v.001l7.627-2.044v-.001l7.205-1.93 6.116 22.823-22.824 6.116-6.116-22.824 7.992-2.141ZM282.17 16.637c1.689 6.303-2.051 12.781-8.354 14.47-6.303 1.689-12.781-2.052-14.47-8.354-1.689-6.303 2.052-12.78 8.354-14.47 6.303-1.688 12.781 2.052 14.47 8.354ZM22.754 98.38c6.302-1.689 10.043-8.167 8.354-14.47-1.69-6.302-8.167-10.043-14.47-8.354-6.303 1.689-10.043 8.167-8.354 14.47 1.689 6.302 8.167 10.042 14.47 8.354ZM95.16 247.888c3.093 0 5.71-.751 7.851-2.253 2.141-1.502 3.212-3.337 3.212-5.507V112.473c0-2.169-1.071-4.004-3.212-5.506-2.141-1.502-4.758-2.253-7.851-2.253H80.885v143.174H95.16Zm68.659 16.019c-5.472 0-8.208-1.919-8.208-5.757V94.452c0-3.838 2.736-5.757 8.208-5.757h54.959c5.472 0 8.208 1.919 8.208 5.757v4.505c0 3.838-2.736 5.757-8.208 5.757h-39.613v52.814h39.613c5.472 0 8.208 1.919 8.208 5.757v4.756c0 3.838-2.736 5.757-8.208 5.757h-39.613v84.352c0 3.838-2.855 5.757-8.565 5.757h-6.781Zm9.085 199.2c3.934 3.417 8.85 5.125 14.751 5.125h1.686c6.04 0 10.957-1.708 14.75-5.125 3.794-3.543 5.69-7.972 5.69-13.287V282.128c0-5.314-1.896-9.68-5.69-13.097-3.793-3.543-8.71-5.314-14.75-5.314h-1.686c-5.901 0-10.817 1.771-14.751 5.314-3.934 3.417-5.9 7.783-5.9 13.097V449.82c0 5.315 1.966 9.744 5.9 13.287Zm21.073-8.731c-1.265 1.139-2.81 1.708-4.636 1.708h-2.108c-1.826 0-3.371-.569-4.636-1.708-1.124-1.139-1.685-2.531-1.685-4.176V281.749c0-1.645.561-3.037 1.685-4.176 1.265-1.139 2.81-1.708 4.636-1.708h2.108c1.826 0 3.371.569 4.636 1.708 1.264 1.139 1.896 2.531 1.896 4.176V450.2c0 1.645-.632 3.037-1.896 4.176Zm-80.746-25.565c-3.232 0-4.847-1.455-4.847-4.365V300.311c0-2.91 1.615-4.365 4.847-4.365h17.49c5.9 0 10.747 1.771 14.54 5.314 3.934 3.417 5.9 7.782 5.9 13.097v43.846c0 3.29-.843 6.39-2.528 9.3-1.546 2.784-4.285 4.872-8.219 6.264l12.222 50.109c.141.38.211.886.211 1.519 0 2.277-1.405 3.416-4.214 3.416h-4.426c-2.809 0-4.565-1.265-5.268-3.796l-11.8-50.679h-5.058v50.11c0 2.91-1.615 4.365-4.847 4.365h-4.003Zm17.911-66.243c1.827 0 3.302-.443 4.426-1.328 1.123-1.013 1.685-2.341 1.685-3.986v-43.277c0-1.645-.632-3.037-1.896-4.175-1.265-1.139-2.81-1.709-4.636-1.709h-8.64v54.475h9.061Zm97.315 66.243c-3.231 0-4.847-1.455-4.847-4.365V300.311c0-2.91 1.616-4.365 4.847-4.365h5.268c2.809 0 4.636 1.202 5.479 3.606l24.655 87.312h.21v-86.553c0-2.91 1.616-4.365 4.847-4.365h4.215c3.231 0 4.846 1.455 4.846 4.365v124.135c0 2.91-1.615 4.365-4.846 4.365h-5.058c-2.809 0-4.636-1.202-5.479-3.606l-24.865-87.691h-.211v86.932c0 2.91-1.616 4.365-4.847 4.365h-4.214Z" clipRule="evenodd"/></svg>